<svg width="140" height="64" viewBox="0 0 140 64" fill="none" xmlns="http://www.w3.org/2000/svg">
<path d="M55.8782 21.9465C55.8782 21.776 55.8782 19.2959 55.8782 19.2959H54.4045C54.4045 19.2959 54.4045 21.7375 54.4045 21.8146C54.4045 22.2655 53.9866 22.5679 53.2827 22.5679C52.5458 22.5679 52.1444 22.2764 52.1444 21.809C52.1444 21.732 52.1444 19.2959 52.1444 19.2959H50.6541C50.6541 19.2959 50.6541 21.611 50.6541 21.809C50.6541 23.1178 51.7264 23.6732 53.2222 23.6732C54.8225 23.6732 55.8782 23.1123 55.8782 21.9465Z" fill="#35AA9A"/>
<path d="M60.8412 23.6127V22.4634H58.2127V19.2959H56.7224V23.6127H60.8412Z" fill="#35AA9A"/>
<path d="M65.2705 20.3793V19.2959H60.1178V20.3793H61.938V23.6127H63.4447V20.3793H65.2705Z" fill="#35AA9A"/>
<path d="M67.2516 23.6127V19.2959H65.7394V23.6127H67.2516Z" fill="#35AA9A"/>
<path d="M74.1896 23.6127V19.2959H72.3254L71.1486 21.8861L70.0268 19.2959H68.1021V23.6127H69.5043V21.2812L70.5162 23.6127H71.77L72.7928 21.2812V23.6127H74.1896Z" fill="#35AA9A"/>
<path d="M76.5256 22.8153H78.8572L79.2368 23.6127H80.826L78.6483 19.2959H76.8721L74.5679 23.6127H76.1241L76.5256 22.8153ZM78.3898 21.8475H77.0096L77.5539 20.8081L77.7189 20.4123L77.8729 20.8027L78.3898 21.8475Z" fill="#35AA9A"/>
<path d="M85.4998 20.3793V19.2959H80.3474V20.3793H82.1675V23.6127H83.6744V20.3793H85.4998Z" fill="#35AA9A"/>
<path d="M90.5108 23.6127V22.5404H87.4158V21.9795H90.3844V20.9292H87.4158V20.3737H90.4728V19.2959H85.964V23.6127H90.5108Z" fill="#35AA9A"/>
<path d="M61.8925 25.9075H60.4682C60.4682 25.9075 59.5388 28.624 59.5388 28.69C59.5388 28.624 58.67 25.9075 58.67 25.9075H57.1247C57.1247 25.9075 56.2613 28.624 56.2613 28.69C56.2613 28.624 55.3265 25.9075 55.3265 25.9075H53.7262L55.343 30.2243H56.9543C56.9543 30.2243 57.8231 27.6452 57.8286 27.5737C57.8341 27.6452 58.6975 30.2243 58.6975 30.2243H60.3142L61.8925 25.9075Z" fill="#35AA9A"/>
<path d="M63.8414 30.2243V25.9075H62.3292V30.2243H63.8414Z" fill="#35AA9A"/>
<path d="M69.7236 30.2243V25.9075H68.3158V28.2556L66.2427 25.9075H64.6918V30.2243H66.1107V27.8212L68.2499 30.2243H69.7236Z" fill="#35AA9A"/>
<path d="M75.6149 30.2243V25.9075H74.2071V28.2556L72.1339 25.9075H70.5832V30.2243H72.0019V27.8212L74.1411 30.2243H75.6149Z" fill="#35AA9A"/>
<path d="M81.0223 30.2243V29.152H77.9264V28.591H80.8958V27.5407H77.9264V26.9853H80.9839V25.9075H76.4745V30.2243H81.0223Z" fill="#35AA9A"/>
<path d="M86.8352 27.2217C86.8352 26.8314 86.7413 26.5508 86.5433 26.3474C86.2849 26.0725 85.8397 25.9075 85.1574 25.9075H81.7209V30.2243H83.1892V28.7011H84.5255L85.5981 30.2243H87.2368L85.9337 28.4645C86.2245 28.4206 86.4616 28.2446 86.6149 28.0357C86.7524 27.8432 86.8352 27.5572 86.8352 27.2217ZM85.4057 27.3592C85.4057 27.4308 85.3946 27.5187 85.3554 27.5847C85.3006 27.6946 85.1574 27.7387 84.9214 27.7387H83.1947V26.9523H84.8935C85.125 26.9523 85.2794 26.9908 85.3554 27.1338C85.3946 27.1887 85.4057 27.2768 85.4057 27.3592Z" fill="#35AA9A"/>
<path d="M56.4981 34.4715C56.4981 34.4009 56.4981 32.3621 56.4981 32.3621H55.9833C55.9833 32.3621 55.9833 34.3925 55.9833 34.4383C55.9833 34.9282 55.5223 35.2065 54.8579 35.2065C54.0732 35.2065 53.687 34.9075 53.687 34.4341C53.687 34.3884 53.687 32.3621 53.687 32.3621H53.168C53.168 32.3621 53.168 34.3386 53.168 34.4175C53.168 35.2812 53.8406 35.6632 54.8373 35.6632C55.867 35.6632 56.4981 35.2562 56.4981 34.4715Z" fill="#35AA9A"/>
<path d="M60.1923 35.6217V35.1442H57.9459V32.3621H57.4269V35.6217H60.1923Z" fill="#35AA9A"/>
<path d="M63.1419 32.8354V32.3621H59.6787V32.8354H61.1487V35.6217H61.6719V32.8354H63.1419Z" fill="#35AA9A"/>
<path d="M66.8325 33.2838C66.8325 33.0513 66.7826 32.8811 66.6954 32.744C66.5418 32.5156 66.2469 32.3621 65.757 32.3621H63.6476V35.6217H64.1583V34.2472H65.6448L66.5542 35.6217H67.1521L66.1681 34.16C66.4172 34.131 66.6123 33.9897 66.7161 33.8071C66.791 33.6825 66.8325 33.4998 66.8325 33.2838ZM66.3175 33.3253C66.3175 33.4167 66.2968 33.5289 66.2594 33.6036C66.193 33.724 66.0393 33.7863 65.7902 33.7904H64.1624C64.1624 33.7821 64.1624 32.8271 64.1624 32.8271H65.6947C66.0061 32.8271 66.1722 32.9019 66.2594 33.043C66.2968 33.1095 66.3175 33.2215 66.3175 33.3253Z" fill="#35AA9A"/>
<path d="M68.3099 34.8161H70.3404L70.7556 35.6217H71.3121L69.6594 32.3621H69.049L67.3423 35.6217H67.8863L68.3099 34.8161ZM70.1244 34.3552H68.5341L69.1943 33.1053L69.3397 32.8022L69.485 33.1053L70.1244 34.3552Z" fill="#35AA9A"/>
<path d="M76.5784 35.3103C76.7071 35.1607 76.7653 34.949 76.7653 34.7206C76.7653 34.5047 76.703 34.2887 76.5742 34.1558C76.4455 34.0313 76.2379 33.9275 76.0095 33.9067C76.1424 33.8859 76.2462 33.8029 76.3167 33.7157C76.4289 33.587 76.4953 33.3794 76.4953 33.1718C76.4953 32.9516 76.4289 32.7523 76.2877 32.6153C76.1341 32.4617 75.8725 32.3621 75.507 32.3621H73.3145V35.6217H75.669C76.1091 35.6217 76.4164 35.5096 76.5784 35.3103ZM75.9596 33.2756C75.9596 33.4209 75.914 33.5496 75.8351 33.6243C75.7561 33.7116 75.6233 33.7489 75.4821 33.7489H73.8211V32.8105H75.3866C75.5776 32.8105 75.7229 32.8478 75.8226 32.9392C75.9098 33.0222 75.9596 33.1427 75.9596 33.2756ZM76.1257 34.9946C76.0219 35.1109 75.8434 35.1691 75.5818 35.1691H73.8211V34.2016H75.5943C75.8351 34.2016 76.0012 34.2514 76.1009 34.3469C76.1921 34.4341 76.2296 34.5462 76.2296 34.6749C76.2296 34.8078 76.2005 34.9199 76.1257 34.9946Z" fill="#35AA9A"/>
<path d="M80.5349 35.6217V35.1442H78.002V34.214H80.4352V33.7406H78.002V32.8354H80.5058V32.3621H77.4953V35.6217H80.5349Z" fill="#35AA9A"/>
<path d="M84.5915 34.6582C84.5915 34.1266 84.2392 33.8526 83.3712 33.7529C83.2255 33.7322 82.9098 33.699 82.7396 33.6782C81.934 33.5827 81.6891 33.4748 81.6891 33.1966C81.6891 32.9267 81.959 32.773 82.7728 32.773C83.4036 32.773 83.728 32.8976 83.8902 33.1218C83.9361 33.1841 83.9607 33.2589 83.973 33.3169H84.5289C84.5132 33.2214 84.4752 33.0885 84.417 32.9806C84.1933 32.5945 83.7325 32.3162 82.7728 32.3162C81.6268 32.3121 81.1534 32.7274 81.1534 33.2422C81.1534 33.7571 81.523 34.0187 82.4822 34.1309C82.6483 34.1516 82.943 34.1848 83.0884 34.2015C83.832 34.2927 84.0647 34.4049 84.0647 34.7163C84.0647 35.0029 83.7985 35.2105 82.9472 35.2105C82.2497 35.2105 81.8758 35.0859 81.7264 34.8451C81.6808 34.7786 81.6517 34.6748 81.6476 34.6042H81.0994C81.1119 34.7537 81.1534 34.9156 81.2281 35.0444C81.4441 35.4389 81.9507 35.6673 82.9306 35.6673C84.1016 35.6673 84.5915 35.2893 84.5915 34.6582Z" fill="#35AA9A"/>
<path d="M88.3155 32.8354V32.3621H84.8525V32.8354H86.3223V35.6217H86.8457V32.8354H88.3155Z" fill="#35AA9A"/>
<path d="M51.698 38.4549C51.698 38.1227 51.6315 37.8984 51.5193 37.7282C51.3616 37.4831 51.0542 37.3545 50.5186 37.3545H48.459V40.6141H48.9739V39.551C48.9739 39.551 50.4273 39.551 50.4979 39.551C51.0003 39.5469 51.3449 39.4307 51.5277 39.1649C51.6439 39.003 51.698 38.7704 51.698 38.4549ZM51.1747 38.4549C51.1747 38.6209 51.158 38.7455 51.1041 38.8286C51.0086 38.9822 50.8134 39.0777 50.4106 39.0777C50.3733 39.0777 48.9739 39.0777 48.9739 39.0777V37.8196H50.4273C50.8051 37.8196 51.0003 37.9067 51.1041 38.0769C51.1539 38.1517 51.1747 38.2888 51.1747 38.4549Z" fill="#35AA9A"/>
<path d="M55.4566 40.6141V40.1366H52.9236V39.2064H55.357V38.7331H52.9236V37.8279H55.4276V37.3545H52.4171V40.6141H55.4566Z" fill="#35AA9A"/>
<path d="M59.4174 38.2763C59.4174 38.0437 59.3676 37.8735 59.2803 37.7365C59.1267 37.5081 58.8319 37.3545 58.3419 37.3545H56.2325V40.6141H56.7432V39.2397H58.2298L59.1392 40.6141H59.7371L58.753 39.1524C59.0022 39.1234 59.1974 38.9822 59.3011 38.7995C59.3759 38.6749 59.4174 38.4923 59.4174 38.2763ZM58.9025 38.3178C58.9025 38.4091 58.8817 38.5213 58.8443 38.5961C58.7779 38.7164 58.6242 38.7787 58.3751 38.7828H56.7473C56.7473 38.7746 56.7473 37.8196 56.7473 37.8196H58.2796C58.591 37.8196 58.7571 37.8943 58.8443 38.0355C58.8817 38.1019 58.9025 38.214 58.9025 38.3178Z" fill="#35AA9A"/>
<path d="M63.2674 37.8279V37.3545H60.369V40.6141H60.8839V39.2272H63.1595V38.7414H60.8839V37.8279H63.2674Z" fill="#35AA9A"/>
<path d="M65.6308 37.2961C64.9373 37.2961 64.4598 37.4664 64.1192 37.8235C63.8328 38.1017 63.7082 38.4879 63.7082 38.9737C63.7082 39.5052 63.8702 39.9039 64.1691 40.1738C64.4889 40.4936 64.9788 40.6595 65.6308 40.6595C66.3035 40.6595 66.8266 40.4936 67.1381 40.1571C67.408 39.8831 67.5492 39.4928 67.5492 38.9696C67.5492 38.463 67.4287 38.0768 67.1423 37.8027C66.8142 37.4622 66.3242 37.2961 65.6308 37.2961ZM65.6308 40.1946C65.174 40.1946 64.8501 40.0949 64.6051 39.8956C64.356 39.6921 64.2356 39.3806 64.2356 38.982C64.2356 38.6083 64.3394 38.2969 64.5387 38.11C64.7671 37.8941 65.1159 37.7654 65.6267 37.7654C66.154 37.7654 66.482 37.89 66.727 38.1058C66.9347 38.2886 67.026 38.6124 67.026 38.9778C67.026 39.3474 66.9305 39.663 66.7187 39.854C66.4737 40.0824 66.1291 40.1946 65.6308 40.1946Z" fill="#35AA9A"/>
<path d="M71.4453 38.2763C71.4453 38.0437 71.3954 37.8735 71.3083 37.7365C71.1546 37.5081 70.8598 37.3545 70.3699 37.3545H68.2604V40.6141H68.7712V39.2397H70.2577L71.1671 40.6141H71.765L70.7809 39.1524C71.03 39.1234 71.2252 38.9822 71.329 38.7995C71.4038 38.6749 71.4453 38.4923 71.4453 38.2763ZM70.9303 38.3178C70.9303 38.4091 70.9097 38.5213 70.8723 38.5961C70.8059 38.7164 70.6522 38.7787 70.4031 38.7828H68.7753C68.7753 38.7746 68.7753 37.8196 68.7753 37.8196H70.3076C70.619 37.8196 70.7851 37.8943 70.8723 38.0355C70.9097 38.1019 70.9303 38.214 70.9303 38.3178Z" fill="#35AA9A"/>
<path d="M76.4118 40.6141V37.3545H75.7391L74.3979 40.0369L73.0815 37.3545H72.3964V40.6141H72.8906V38.106L74.1196 40.6141H74.6594L75.9176 38.106V40.6141H76.4118Z" fill="#35AA9A"/>
<path d="M77.8697 39.8085H79.9003L80.3155 40.6141H80.872L79.2192 37.3545H78.6089L76.9022 40.6141H77.4462L77.8697 39.8085ZM79.6843 39.3476H78.094L78.7542 38.0978L78.8996 37.7946L79.0449 38.0978L79.6843 39.3476Z" fill="#35AA9A"/>
<path d="M84.6128 40.6141V37.3545H84.1184V39.8874L81.9596 37.3545H81.3741V40.6141H81.8765V38.0645L84.0524 40.6141H84.6128Z" fill="#35AA9A"/>
<path d="M89.0925 39.3973H88.5522C88.5355 39.5467 88.4773 39.6963 88.3733 39.8083C88.1496 40.07 87.7928 40.182 87.2447 40.182C86.7838 40.182 86.2895 40.0533 86.0523 39.717C85.9282 39.5592 85.8488 39.3267 85.8488 38.9778C85.8488 38.6664 85.9036 38.4339 86.0233 38.2761C86.2223 37.9564 86.6418 37.7903 87.2324 37.7903C87.8051 37.7903 88.1663 37.948 88.3576 38.1681C88.465 38.2844 88.5276 38.4215 88.5478 38.5833H89.088C89.0712 38.4007 89.0131 38.1847 88.8889 38.002C88.6227 37.6075 88.1328 37.2961 87.2357 37.2961C86.3812 37.2961 85.87 37.5702 85.587 37.9812C85.4047 38.2179 85.313 38.5501 85.313 38.9737C85.313 39.4471 85.426 39.7959 85.6206 40.0409C85.9036 40.4271 86.4472 40.6595 87.2693 40.6595C88.1127 40.6595 88.6149 40.4063 88.8643 40.0035C89.0052 39.8083 89.0757 39.5758 89.0925 39.3973Z" fill="#35AA9A"/>
<path d="M92.8086 40.6141V40.1366H90.2752V39.2064H92.7091V38.7331H90.2752V37.8279H92.7796V37.3545H89.7685V40.6141H92.8086Z" fill="#35AA9A"/>
<path d="M54.833 43.8521L55.4541 45.7634H57.4637L55.8379 46.9447L56.4589 48.8559L54.833 47.6747L53.2072 48.8559L53.8283 46.9447L52.2024 45.7634H54.212L54.833 43.8521Z" fill="#35AA9A"/>
<path d="M62.0026 43.8523L62.6362 45.7635H64.6869L63.0279 46.9448L63.6616 48.8561L62.0026 47.6748L60.3436 48.8561L60.9772 46.9448L59.3182 45.7635H61.3689L62.0026 43.8523Z" fill="#35AA9A"/>
<path d="M69.1151 43.8523L69.7489 45.7635H71.7995L70.1405 46.9448L70.7742 48.8561L69.1151 47.6748L67.4561 48.8561L68.0898 46.9448L66.4308 45.7635H68.4815L69.1151 43.8523Z" fill="#35AA9A"/>
<path d="M76.2277 43.8523L76.8613 45.7635H78.912L77.253 46.9448L77.8867 48.8561L76.2277 47.6748L74.5687 48.8561L75.2023 46.9448L73.5433 45.7635H75.594L76.2277 43.8523Z" fill="#35AA9A"/>
<path d="M83.397 43.8523L84.0178 45.7635H86.0278L84.4014 46.9448L85.0222 48.8561L83.397 47.6748L81.771 48.8561L82.3921 46.9448L80.7662 45.7635H82.7759L83.397 43.8523Z" fill="#35AA9A"/>
<path d="M58.3165 11.606L58.786 13.0511H60.3055L59.0763 13.9442L59.5458 15.3892L58.3165 14.4962L57.0872 15.3892L57.5568 13.9442L56.3275 13.0511H57.847L58.3165 11.606Z" fill="#35AA9A"/>
<path d="M63.7373 11.604L64.2165 13.0491H65.7669L64.5126 13.9423L64.9916 15.3873L63.7373 14.4942L62.4829 15.3873L62.9621 13.9423L61.7076 13.0491H63.2581L63.7373 11.604Z" fill="#35AA9A"/>
<path d="M69.1148 11.604L69.5938 13.0491H71.1443L69.89 13.9423L70.3691 15.3873L69.1148 14.4942L67.8603 15.3873L68.3395 13.9423L67.0851 13.0491H68.6356L69.1148 11.604Z" fill="#35AA9A"/>
<path d="M74.4933 11.604L74.9724 13.0491H76.5229L75.2685 13.9423L75.7476 15.3873L74.4933 14.4942L73.2389 15.3873L73.718 13.9423L72.4636 13.0491H74.0141L74.4933 11.604Z" fill="#35AA9A"/>
<path d="M79.913 11.604L80.3826 13.0491H81.9021L80.6728 13.9423L81.1424 15.3873L79.913 14.4942L78.6838 15.3873L79.1533 13.9423L77.9241 13.0491H79.4435L79.913 11.604Z" fill="#35AA9A"/>
<path fill-rule="evenodd" clip-rule="evenodd" d="M36.6737 37.6164C34.6015 24.6517 40.6492 11.8247 52.7562 6.31641L52.8679 6.56203C40.8827 12.0148 34.8851 24.7163 36.9401 37.5737C39.2138 51.7983 50.6891 60.3293 64.7417 60.7406L64.7338 61.0104C50.5717 60.5959 38.9707 51.9877 36.6737 37.6164Z" fill="#35AA9A"/>
<path d="M50.131 9.62516C47.8936 9.67616 45.275 10.9379 43.7299 12.7704C44.969 13.9211 46.9627 13.4957 48.3974 13.2604C50.4451 12.9246 52.6226 12.274 54.5549 11.3532C53.7604 9.66196 51.6202 9.59127 50.131 9.62516Z" fill="#35AA9A"/>
<path d="M48.3713 6.86501C47.0461 8.92936 45.4667 10.9811 43.748 12.7878C42.31 11.438 43.178 9.19165 43.7649 7.79473C44.828 5.26351 47.377 3.08071 50.0419 1.96387C50.7733 3.62789 49.1847 5.59795 48.3713 6.86501Z" fill="#35AA9A"/>
<path d="M43.6563 15.414C41.5613 16.1587 39.761 18.2551 38.8571 20.3597C40.3635 21.0601 42.0761 20.0486 43.329 19.3752C45.0493 18.4504 46.8043 17.1743 48.1853 15.6977C46.9375 14.3812 45.043 14.9212 43.6563 15.414Z" fill="#35AA9A"/>
<path d="M41.1171 13.3512C40.6585 15.7057 39.8896 18.1461 38.8798 20.3704C37.1173 19.5391 37.1844 17.1582 37.2599 15.6431C37.3887 13.0569 38.8356 10.1078 40.8499 8.23364C42.0831 9.55574 41.4093 11.8514 41.1171 13.3512Z" fill="#35AA9A"/>
<path d="M39.6253 22.8878C37.8796 24.265 36.8215 26.8171 36.5764 29.0961C38.2278 29.2857 39.5478 27.7828 40.5299 26.7518C41.8671 25.3479 43.133 23.5871 43.9369 21.745C42.3626 20.8862 40.7624 21.9908 39.6253 22.8878Z" fill="#35AA9A"/>
<path d="M36.601 21.7252C36.9122 24.1028 36.9129 26.6751 36.6015 29.0991C34.681 28.8632 34.044 26.5573 33.6677 25.1107C33.0181 22.6137 33.4537 19.3884 34.7192 16.9609C36.3006 17.8364 36.4021 20.2054 36.601 21.7252Z" fill="#35AA9A"/>
<path d="M38.2552 31.0458C36.8739 33.0693 36.3881 36.2404 37.0093 38.7893C38.8347 38.3571 39.7396 36.2904 40.4662 34.8309C41.4318 32.891 42.248 30.6279 42.5402 28.4075C40.5603 27.9955 39.1652 29.7127 38.2552 31.0458Z" fill="#35AA9A"/>
<path d="M34.6292 30.8412C35.7054 33.333 36.5453 36.0755 37.0368 38.7832C34.9432 39.2329 33.4365 37.0346 32.5611 35.5769C31.0027 32.9822 30.5487 29.3851 31.1196 26.281C33.0357 26.6652 33.9734 29.3234 34.6292 30.8412Z" fill="#35AA9A"/>
<path d="M39.2216 39.8496C38.4799 42.3043 38.9954 45.6414 40.4972 47.9492C42.1474 46.8747 42.3758 44.5099 42.6097 42.8144C42.9181 40.5769 43.0633 38.0982 42.6802 35.7781C40.5694 36.0475 39.717 38.2097 39.2216 39.8496Z" fill="#35AA9A"/>
<path d="M35.5537 40.9006C37.4055 43.0254 39.1137 45.4482 40.5225 47.9334C38.6118 49.1262 36.3697 47.4966 35.01 46.3434C32.5976 44.2978 31.0313 40.8208 30.6599 37.5429C32.6674 37.2731 34.4366 39.6186 35.5537 40.9006Z" fill="#35AA9A"/>
<path d="M43.1134 48.2047C43.2726 51.062 45.1328 54.0602 47.6096 55.7667C48.8058 54.1291 48.056 51.6199 47.648 49.8684C47.0987 47.5102 46.3384 45.0546 45.2086 42.8757C43.2385 43.9169 43.0086 46.323 43.1134 48.2047Z" fill="#35AA9A"/>
<path d="M39.7824 50.6182C42.4658 52.1093 45.1416 53.8688 47.6294 55.7411C46.1395 57.703 43.1616 56.9207 41.3155 56.2901C38.0624 55.1788 35.1622 52.2494 33.6474 48.9948C35.568 48.0055 38.1972 49.7373 39.7824 50.6182Z" fill="#35AA9A"/>
<path d="M50.7562 55.185C52.3668 58.1243 56.037 60.0418 59.4932 60.5034C59.8652 58.3666 57.5532 56.2509 56.2932 54.8668C54.4995 52.8963 52.6303 50.8514 50.5346 49.1477C48.9646 50.9707 49.7946 53.4302 50.7562 55.185Z" fill="#35AA9A"/>
<path d="M48.4562 58.91C52.1173 59.2907 55.8404 59.8386 59.4993 60.4705C59.15 63.1666 54.8715 63.6017 52.9292 63.7609C48.9467 64.0872 44.5165 62.4864 41.4317 59.7914C42.9639 57.9886 46.5061 58.7074 48.4562 58.91Z" fill="#35AA9A"/>
<path d="M55.5076 4.05349C53.0497 4.75469 50.1726 6.08495 48.7513 8.54056C51.3312 8.25936 53.8667 7.34139 56.3464 6.64198C59.1239 5.85845 62.0485 5.27246 64.7377 4.19096C61.7926 3.0127 58.3209 3.25084 55.5076 4.05349Z" fill="#35AA9A"/>
<path fill-rule="evenodd" clip-rule="evenodd" d="M103.06 37.5737C105.114 24.7163 99.1168 12.0151 87.1319 6.56203L87.2437 6.31641C99.3506 11.8248 105.398 24.6517 103.326 37.6164C101.03 51.9877 89.4282 60.5959 75.2661 61.0104L75.2583 60.7406C89.3108 60.3293 100.786 51.7983 103.06 37.5737Z" fill="#35AA9A"/>
<path d="M89.8689 9.62516C92.1059 9.67616 94.7244 10.9379 96.2702 12.7704C95.0309 13.9211 93.0365 13.4957 91.6026 13.2604C89.5546 12.9246 87.3768 12.274 85.4451 11.3532C86.2393 9.66196 88.379 9.59127 89.8689 9.62516Z" fill="#35AA9A"/>
<path d="M91.6282 6.86501C92.9536 8.92936 94.533 10.9811 96.251 12.7878C97.6894 11.438 96.8215 9.19165 96.2342 7.79473C95.1716 5.26351 92.6225 3.08071 89.9571 1.96387C89.2256 3.62789 90.815 5.59795 91.6282 6.86501Z" fill="#35AA9A"/>
<path d="M96.3438 15.414C98.4388 16.1587 100.239 18.2551 101.142 20.3597C99.6357 21.0601 97.9232 20.0486 96.6704 19.3752C94.9502 18.4504 93.1952 17.1743 91.8149 15.6977C93.0621 14.3812 94.9569 14.9212 96.3438 15.414Z" fill="#35AA9A"/>
<path d="M98.8829 13.3512C99.3415 15.7057 100.11 18.1461 101.12 20.3704C102.883 19.5391 102.816 17.1582 102.74 15.6431C102.611 13.0569 101.165 10.1078 99.1503 8.23364C97.9165 9.55574 98.591 11.8514 98.8829 13.3512Z" fill="#35AA9A"/>
<path d="M100.374 22.8878C102.12 24.265 103.178 26.8171 103.423 29.0961C101.772 29.2857 100.453 27.7828 99.4705 26.7518C98.1327 25.3479 96.8666 23.5871 96.0635 21.745C97.6372 20.8862 99.2378 21.9908 100.374 22.8878Z" fill="#35AA9A"/>
<path d="M103.4 21.7252C103.088 24.1026 103.088 26.6751 103.399 29.0991C105.319 28.8632 105.957 26.5573 106.333 25.1107C106.982 22.6137 106.546 19.3884 105.281 16.9609C103.7 17.8364 103.598 20.2054 103.4 21.7252Z" fill="#35AA9A"/>
<path d="M101.744 31.0458C103.126 33.0693 103.611 36.2404 102.991 38.7893C101.165 38.3571 100.26 36.2905 99.5332 34.8309C98.5679 32.891 97.7513 30.6279 97.4594 28.4075C99.4392 27.9955 100.835 29.7127 101.744 31.0458Z" fill="#35AA9A"/>
<path d="M105.371 30.8412C104.295 33.333 103.455 36.0755 102.964 38.7832C105.056 39.2329 106.563 37.0346 107.439 35.5769C108.997 32.9822 109.451 29.3851 108.881 26.281C106.965 26.6652 106.026 29.3234 105.371 30.8412Z" fill="#35AA9A"/>
<path d="M100.778 39.8496C101.519 42.3043 101.005 45.6414 99.5027 47.9492C97.8529 46.8747 97.6236 44.5099 97.3899 42.8144C97.0823 40.5769 96.9369 38.0982 97.3194 35.7781C99.43 36.0475 100.282 38.2097 100.778 39.8496Z" fill="#35AA9A"/>
<path d="M104.445 40.9006C102.594 43.0256 100.886 45.4482 99.4769 47.9334C101.387 49.1262 103.63 47.4966 104.99 46.3434C107.402 44.2978 108.969 40.8208 109.34 37.5429C107.332 37.2731 105.563 39.6186 104.445 40.9006Z" fill="#35AA9A"/>
<path d="M96.8852 48.2047C96.7264 51.062 94.8663 54.0602 92.3898 55.7667C91.193 54.1291 91.9436 51.62 92.3507 49.8684C92.8999 47.5102 93.6605 45.0546 94.7902 42.8757C96.761 43.9169 96.9903 46.323 96.8852 48.2047Z" fill="#35AA9A"/>
<path d="M100.217 50.6182C97.534 52.1093 94.8585 53.8688 92.3709 55.7411C93.8608 57.703 96.8383 56.9207 98.6839 56.2901C101.938 55.1788 104.838 52.2494 106.352 48.9948C104.432 48.0055 101.802 49.7373 100.217 50.6182Z" fill="#35AA9A"/>
<path d="M89.2436 55.185C87.6329 58.1243 83.9631 60.0418 80.5064 60.5034C80.1344 58.3666 82.4463 56.2509 83.7069 54.8668C85.4999 52.8963 87.369 50.8514 89.4651 49.1477C91.0355 50.9707 90.2044 53.4302 89.2436 55.185Z" fill="#35AA9A"/>
<path d="M91.5432 58.91C87.8823 59.2907 84.1598 59.8386 80.5002 60.4705C80.8497 63.1666 85.1285 63.6017 87.0702 63.7609C91.0533 64.0872 95.4838 62.4864 98.5675 59.7914C97.0363 57.9886 93.4939 58.7074 91.5432 58.91Z" fill="#35AA9A"/>
<path d="M84.4922 4.05349C86.9496 4.75469 89.8276 6.08495 91.2481 8.54056C88.6688 8.25936 86.1331 7.34139 83.6534 6.64198C80.8758 5.85845 77.9512 5.27246 75.2621 4.19096C78.2073 3.0127 81.6788 3.25084 84.4922 4.05349Z" fill="#35AA9A"/>
<path d="M71.5986 2.78277L70.3374 0L69.1 2.73099L66.2222 0.946718L68.0714 4.8328H72.6703L74.4528 0.946718L71.5986 2.78277Z" fill="#35AA9A"/>
<path d="M72.6405 5.43677H68.0343V6.11649H72.6405V5.43677Z" fill="#35AA9A"/>
<path d="M70.6665 58.0198L71.4088 60.304H73.8106L71.8675 61.7157L72.6096 64L70.6665 62.5883L68.7234 64L69.4657 61.7157L67.5226 60.304H69.9244L70.6665 58.0198Z" fill="#35AA9A"/>
</svg>
