<svg width="134" height="64" viewBox="0 0 134 64" fill="none" xmlns="http://www.w3.org/2000/svg">
<path d="M121.054 4.51861C122.299 6.37909 123.494 8.67421 122.906 11.1338C120.878 9.97314 119.247 8.07813 117.954 6.20735C116.652 4.32401 115.299 2.32132 114.836 0C117.394 0.654234 119.684 2.47034 121.054 4.51861Z" fill="#35AA9A"/>
<path d="M11.1144 11.1298C10.5283 8.66975 11.7257 6.37553 12.9728 4.51611C14.3456 2.46906 16.6362 0.654614 19.1944 0.00219727C18.7296 2.32306 17.3751 4.32499 16.0713 6.20713C14.7763 8.077 13.143 9.97079 11.1144 11.1298Z" fill="#35AA9A"/>
<path d="M9.3295 15.8486C9.78701 13.9005 9.77686 11.7677 9.34131 9.94038C8.95831 8.33447 8.401 6.06434 6.56672 5.29834C5.23341 7.43702 4.69746 10.3494 5.47451 12.5317C6.03637 14.1102 7.04679 16.1972 9.14231 16.5203C11.0652 16.9636 13.0096 15.9378 14.5452 15.091C16.2527 14.1494 17.9253 12.6515 18.9414 10.8707C17.0773 9.92978 14.9544 10.6934 13.3573 11.4251C11.6357 12.214 10.0542 13.9065 9.3295 15.8486Z" fill="#35AA9A"/>
<path d="M46.6467 17.7201V7.93896H43.3074V11.5026H38.2984V7.93896H34.9591V17.7201H38.2984V14.169H43.3074V17.7201H46.6467Z" fill="#35AA9A"/>
<path d="M57.7197 7.93896H61.4078L56.1747 14.493V17.7201H52.823V14.5054L47.6521 7.93896H51.4523L54.5425 11.8513L57.7197 7.93896Z" fill="#35AA9A"/>
<path fill-rule="evenodd" clip-rule="evenodd" d="M73.0377 8.77372C73.6981 9.2971 74.0719 10.1818 74.0719 11.4652C74.0719 12.5118 73.8102 13.2967 73.3118 13.8451C72.6389 14.6176 71.5301 14.9664 70.0847 14.9789C69.6361 14.9914 65.7984 14.9789 65.7984 14.9789V17.7201H62.4467V7.93896H70.0349C71.3804 7.93896 72.4022 8.21307 73.0377 8.77372ZM70.5581 12.2253C70.6579 12.0508 70.7077 11.8265 70.7077 11.515C70.7077 11.1911 70.6453 10.9169 70.5333 10.7675C70.3214 10.4559 69.9226 10.3063 69.2748 10.3063H65.7736V12.6987H69.2498C69.9476 12.6987 70.3588 12.5368 70.5581 12.2253Z" fill="#35AA9A"/>
<path d="M85.7099 15.2903V17.7201H75.4058V7.93896H85.6235V10.3811H78.6952V11.6396H85.4236V14.0194H78.6952V15.2903H85.7099Z" fill="#35AA9A"/>
<path fill-rule="evenodd" clip-rule="evenodd" d="M98.2209 8.93576C98.6707 9.39676 98.8812 10.0322 98.8812 10.9169C98.8812 11.677 98.695 12.3249 98.383 12.7611C98.0347 13.2345 97.4986 13.6332 96.8383 13.7329L99.7914 17.7201H96.078L93.6489 14.2687H90.6215V17.7201H87.2943V7.93896H95.0815C96.6262 7.93896 97.6364 8.31273 98.2209 8.93576ZM95.5298 11.7393C95.6176 11.5898 95.6419 11.3904 95.6419 11.2285C95.6419 11.0416 95.6176 10.8421 95.5298 10.7175C95.3556 10.3936 95.0073 10.3063 94.4833 10.3063H90.6336V12.0882H94.5454C95.0815 12.0882 95.4056 11.9886 95.5298 11.7393Z" fill="#35AA9A"/>
<path d="M83.9259 29.9881C83.9259 27.7523 82.5055 26.5773 79.1925 26.2182C78.654 26.1529 77.071 25.9897 76.0754 25.9081C73.5131 25.6306 72.7462 25.4839 72.7462 24.831C72.7462 24.2435 73.35 23.9661 75.651 23.9661C77.2831 23.9661 78.1971 24.2761 78.556 24.7494C78.7356 24.9779 78.8009 25.1574 78.8173 25.337H83.5175C83.4684 24.9452 83.3053 24.3903 83.044 23.9008C82.1955 22.2687 80.1554 20.9631 75.7654 20.9631C70.8203 20.9631 68.1113 22.7094 68.1113 24.9942C68.1113 27.1974 69.6453 28.4867 73.7906 28.8621C74.2593 28.9022 75.2659 28.9973 76.0901 29.0752L76.141 29.08L76.1502 29.0809L76.1538 29.0812L76.5977 29.1232C78.7682 29.3517 79.3558 29.4985 79.3558 30.1841C79.3558 30.8204 78.7846 31.1631 76.3855 31.1631C74.5251 31.1631 73.4316 30.8857 73.0399 30.4124C72.8767 30.2166 72.7624 29.9228 72.7299 29.727H68.0297C68.0786 30.0534 68.1602 30.5757 68.3397 31C69.1394 32.7952 71.2284 34.1661 76.0754 34.1661C81.2815 34.1661 83.9259 32.6973 83.9259 29.9881Z" fill="#35AA9A"/>
<path fill-rule="evenodd" clip-rule="evenodd" d="M50.6054 32.6649C51.095 32.0937 51.3398 31.2286 51.3398 30.3474C51.3398 29.5967 51.144 28.8785 50.736 28.4053C50.2463 27.7688 49.3813 27.3119 48.4675 27.1977C49.0877 27.116 49.6751 26.7897 50.0178 26.3653C50.4422 25.8594 50.638 25.1739 50.638 24.3416C50.638 23.5093 50.3932 22.7749 49.8384 22.22C49.2182 21.5835 48.0921 21.1592 46.3296 21.1592H35.2645V33.9705H46.6396C48.4511 33.9705 49.8547 33.5787 50.6054 32.6649ZM46.101 25.1087C46.101 25.4188 46.0031 25.6799 45.84 25.8594C45.6114 26.0715 45.1871 26.1532 44.6322 26.1532H39.5404V24.0642H44.518C45.1382 24.0642 45.5625 24.1458 45.7909 24.358C46.0031 24.5374 46.101 24.7985 46.101 25.1087ZM46.5907 30.7228C46.3296 30.9676 45.8725 31.0655 45.1055 31.0655H39.5404V28.9276H45.1545C45.8725 28.9276 46.2969 29.0254 46.5416 29.2376C46.7376 29.4334 46.819 29.6783 46.819 30.0047C46.819 30.3148 46.7538 30.5596 46.5907 30.7228Z" fill="#35AA9A"/>
<path d="M66.7066 30.7881V33.9705H53.21V21.1592H66.5924V24.358H57.5184V26.0063H66.3313V29.1234H57.5184V30.7881H66.7066Z" fill="#35AA9A"/>
<path d="M99.8059 24.3743V21.1592H84.5146V24.3743H89.9166V33.9705H94.3872V24.3743H99.8059Z" fill="#35AA9A"/>
<path d="M99.4188 45.307H98.6994L98.6479 44.6143C98.4284 44.9649 97.9634 45.3858 96.9821 45.3858C95.3238 45.3858 94.5529 44.3863 94.5529 41.8343C94.5529 39.8613 95.0436 38.2742 97.0684 38.2742C98.8236 38.2742 99.3582 39.423 99.384 40.6594H98.5071C98.4814 39.8527 98.1209 39.1073 97.0866 39.1073C95.8417 39.1073 95.4813 39.8527 95.4813 41.8608C95.4813 43.9566 95.9295 44.6143 97.1047 44.6143C97.9286 44.6143 98.4102 44.1583 98.5692 43.6147V42.308H96.7973V41.5099H99.4097V43.527C99.4097 44.1296 99.4158 44.7727 99.4173 45.0961L99.4188 45.2499V45.307Z" fill="#35AA9A"/>
<path fill-rule="evenodd" clip-rule="evenodd" d="M35.4301 43.562H37.8854L38.394 45.3071H39.3235L37.289 38.3621H36.1579L33.983 45.3071H34.9038L35.4301 43.562ZM37.6661 42.7816H35.6668C35.6668 42.7816 36.5349 39.9755 36.5524 39.9142C36.5612 39.8703 36.7016 39.2477 36.7016 39.2477L36.7987 39.7082L36.8418 39.9142C36.8506 39.958 37.6661 42.7816 37.6661 42.7816Z" fill="#35AA9A"/>
<path d="M45.9793 38.3621H46.8212L45.1814 45.3071H44.1378C44.1378 45.3071 42.9715 39.9054 42.9715 39.6773C42.9627 39.9054 41.7701 45.3071 41.7701 45.3071H40.7267L39.0869 38.3621H40.0338C40.0338 38.3621 41.3053 43.8602 41.3053 44.0795C41.3053 43.8602 42.4718 38.3621 42.4718 38.3621H43.5152C43.5152 38.3621 44.6815 43.869 44.6815 44.0795C44.6815 43.869 45.9793 38.3621 45.9793 38.3621Z" fill="#35AA9A"/>
<path fill-rule="evenodd" clip-rule="evenodd" d="M50.4222 43.562H47.9668L47.4407 45.3071H46.52L48.6947 38.3621H49.826L51.8605 45.3071H50.9309L50.4222 43.562ZM48.2037 42.7816H50.2031C50.2031 42.7816 49.3875 39.958 49.3788 39.9142L49.3124 39.5981L49.2384 39.2477C49.2384 39.2477 49.0981 39.8703 49.0893 39.9142C49.0718 39.9755 48.2037 42.7816 48.2037 42.7816Z" fill="#35AA9A"/>
<path fill-rule="evenodd" clip-rule="evenodd" d="M55.2398 38.3621C56.3096 38.3621 56.8884 38.8618 56.8884 40.3175C56.8884 41.554 56.4237 41.9661 55.9413 42.1063L57.2743 45.3071H56.3096L55.0732 42.2819H53.3896V45.3071H52.5126V38.3621H55.2398ZM55.1084 41.4925C55.8011 41.4925 55.9677 41.133 55.9677 40.3438C55.9677 39.4494 55.7046 39.1776 55.0645 39.1776H53.3983V41.4925H55.1084Z" fill="#35AA9A"/>
<path fill-rule="evenodd" clip-rule="evenodd" d="M62.7268 41.7206C62.7268 43.3604 62.6041 44.0268 62.2534 44.5267C61.9026 45.0091 61.3502 45.3071 60.4556 45.3071H58.0705V38.3621H60.3942C61.2712 38.3621 61.9552 38.6251 62.2709 39.0987C62.6217 39.6072 62.7268 40.2386 62.7268 41.7206ZM60.2716 44.4828C60.8065 44.4828 61.2537 44.3426 61.4816 44.0356C61.7272 43.7024 61.7974 43.0271 61.7974 41.7206C61.7974 40.6245 61.7359 40.0369 61.4816 39.6598C61.2449 39.3354 60.7889 39.195 60.254 39.195H58.9561V44.4828H60.2716Z" fill="#35AA9A"/>
<path d="M71.9783 38.3621H72.8202L71.1803 45.3071H70.1368C70.1368 45.3071 68.9705 39.9054 68.9705 39.6773C68.9617 39.9054 67.7691 45.3071 67.7691 45.3071H66.7256L65.0858 38.3621H66.0328C66.0328 38.3621 67.3043 43.8602 67.3043 44.0795C67.3043 43.8602 68.4706 38.3621 68.4706 38.3621H69.5142C69.5142 38.3621 70.6804 43.869 70.6804 44.0795C70.6804 43.869 71.9783 38.3621 71.9783 38.3621Z" fill="#35AA9A"/>
<path d="M74.3708 38.3621V45.3071H73.4588V38.3621H74.3708Z" fill="#35AA9A"/>
<path d="M80.0797 38.3621V45.3071H79.0712L76.4843 39.9228V45.3071H75.6336V38.3621H76.6948L79.2202 43.6673V38.3621H80.0797Z" fill="#35AA9A"/>
<path d="M85.7659 38.3621V45.3071H84.7573L82.1708 39.9228V45.3071H81.3201V38.3621H82.3813L84.9072 43.6673V38.3621H85.7659Z" fill="#35AA9A"/>
<path d="M87.9175 38.3621V45.3071H87.0059V38.3621H87.9175Z" fill="#35AA9A"/>
<path d="M93.627 38.3621V45.3071H92.6184L90.0318 39.9228V45.3071H89.1807V38.3621H90.2423L92.7684 43.6673V38.3621H93.627Z" fill="#35AA9A"/>
<path d="M45.3024 58.9951L44.2975 55.9023L43.2926 58.9951H40.0408L42.6715 60.9066L41.6667 63.9994L44.2975 62.0879L46.9284 63.9994L45.9234 60.9066L48.5543 58.9951H45.3024Z" fill="#35AA9A"/>
<path d="M56.9234 58.9959L55.898 55.9031L54.8725 58.9959H51.5543L54.2389 60.9072L53.2135 64L55.898 62.0886L58.5826 64L57.5572 60.9072L60.2416 58.9959H56.9234Z" fill="#35AA9A"/>
<path d="M68.4332 58.9959L67.4078 55.9031L66.3824 58.9959H63.0641L65.7486 60.9072L64.7232 64L67.4078 62.0886L70.0923 64L69.0668 60.9072L71.7515 58.9959H68.4332Z" fill="#35AA9A"/>
<path d="M79.9423 58.9959L78.9169 55.9031L77.8915 58.9959H74.5732L77.2577 60.9072L76.2322 64L78.9169 62.0886L81.6014 64L80.5759 60.9072L83.2606 58.9959H79.9423Z" fill="#35AA9A"/>
<path d="M91.5224 58.9959L90.5183 55.9031L89.5127 58.9959H86.2612L88.8918 60.9072L87.8877 64L90.5183 62.0886L93.1489 64L92.1433 60.9072L94.7754 58.9959H91.5224Z" fill="#35AA9A"/>
<path d="M3.40854 21.1061C4.35416 22.5487 5.8174 24.3557 7.95093 24.3042C9.89107 24.4012 11.5672 23.0771 12.8872 21.972C14.3088 20.7818 15.592 19.0413 16.1337 17.1596C14.1493 16.5823 12.2495 17.6518 10.8327 18.6605C9.3533 19.7141 8.2155 21.6423 7.97107 23.6221C7.95275 21.6387 7.41588 19.5901 6.55038 17.9398C5.75909 16.4311 4.65644 14.3918 2.68919 13.9841C1.91411 16.3317 2.16141 19.2039 3.40854 21.1061Z" fill="#35AA9A"/>
<path d="M8.58203 32.0741C6.60191 32.4059 4.67041 31.1926 3.41601 29.7656C1.80102 27.9283 0.840108 25.4636 1.03608 22.9961C3.07026 23.0477 4.61089 24.8061 5.74959 26.1358C6.97598 27.5679 7.9808 29.452 8.46285 31.3956C8.25083 29.4586 8.90113 27.367 10.1083 26.0746C11.2735 24.827 12.9057 23.4674 14.9366 23.6856C14.8928 25.6497 13.9083 27.5209 12.8929 28.9224C11.9463 30.2284 10.4882 31.8439 8.58203 32.0741Z" fill="#35AA9A"/>
<path d="M4.92419 38.5998C6.74787 39.7871 8.95969 40.9623 11.2842 40.0729C13.1912 39.3982 14.4036 37.4787 15.1493 35.7168C15.9393 33.8499 16.4669 31.6973 16.1016 29.6541C14.0061 29.84 12.2684 31.3393 11.3455 33.1695C10.3807 35.0828 10.1956 37.3602 10.9368 39.3663C9.8417 37.3025 8.24019 35.6327 6.54372 34.0898C5.00158 32.6873 2.78021 31.2098 0.542786 31.4877C0.968492 34.2538 2.65648 37.1235 4.92419 38.5998Z" fill="#35AA9A"/>
<path d="M15.9816 47.5517C17.7762 46.4788 18.4985 44.2214 18.7936 42.2871C19.1118 40.2009 19.0982 37.9002 18.2318 35.9211C16.1497 36.5027 14.7206 38.3766 14.2487 40.4292C13.7501 42.5977 14.1708 44.9088 15.3836 46.7552C13.7715 44.9057 11.6278 43.3785 9.57347 42.3076C7.58911 41.2733 5.15465 40.0257 2.77155 40.7791C3.9207 43.5837 6.37892 46.1949 9.10338 47.275C11.2133 48.1113 13.7801 48.9383 15.9816 47.5517Z" fill="#35AA9A"/>
<path d="M24.4895 48.2773C24.7529 50.2909 24.7455 52.8448 23.1821 54.3947C21.2285 56.3943 18.2051 56.0085 15.8732 55.5685C12.7425 54.9774 9.21845 52.8422 7.32965 49.9992C9.63643 48.729 12.4577 49.5415 14.7414 50.1993L14.8718 50.2367C17.4211 50.9701 20.1377 52.1514 22.4096 53.7654C20.5965 52.1271 19.2755 49.7225 19.2108 47.2988C19.1527 45.1311 20.0936 42.8119 22.1184 41.7786C23.532 43.6339 24.1939 46.0159 24.4895 48.2773Z" fill="#35AA9A"/>
<path d="M33.5625 60.0966C34.7138 57.905 33.5731 55.3329 32.6642 53.4318C31.5895 51.1844 30.1213 48.894 28.02 47.249C26.0024 48.9879 26.1942 51.476 26.7941 53.6383C27.5074 56.2093 29.9803 58.401 32.5411 59.6499C29.5753 58.544 26.3364 57.8802 23.2549 57.6842L22.9427 57.6641C20.4671 57.5028 17.2442 57.2929 15.2715 59.1046C18.2542 61.6402 22.4908 63.1032 26.2248 63.0271C28.7271 62.9762 32.1603 62.6802 33.5625 60.0966Z" fill="#35AA9A"/>
<path d="M124.687 15.8555C123.964 13.912 122.383 12.2174 120.663 11.427C119.065 10.694 116.943 9.9291 115.079 10.8683C116.094 12.6499 117.764 14.1491 119.471 15.0919C121.005 15.9397 122.948 16.9668 124.871 16.5254C126.967 16.2043 127.981 14.1177 128.544 12.5392C129.324 10.358 128.791 7.44498 127.46 5.30493C125.624 6.06987 125.064 8.3394 124.681 9.94515C124.243 11.7729 124.231 13.9064 124.687 15.8555Z" fill="#35AA9A"/>
<path d="M123.18 18.6646C124.658 19.7187 125.792 21.6458 126.036 23.6242C126.057 21.6418 126.596 19.5952 127.463 17.9466C128.255 16.4384 129.36 14.4 131.328 13.9937C132.1 16.3419 131.85 19.214 130.601 21.1151C129.656 22.5552 128.193 24.3584 126.063 24.3101C124.12 24.4093 122.442 23.0821 121.122 21.9747C119.701 20.7833 118.42 19.0419 117.881 17.1599C119.865 16.5838 121.764 17.6548 123.18 18.6646Z" fill="#35AA9A"/>
<path d="M125.537 31.4082C125.753 29.4696 125.105 27.3736 123.896 26.0786C122.733 24.8302 121.102 23.4693 119.071 23.686C119.112 25.6501 120.095 27.5222 121.11 28.9244C122.055 30.2306 123.51 31.8461 125.415 32.0788C127.396 32.4143 129.33 31.2017 130.587 29.7748C132.203 27.9388 133.166 25.4748 132.974 23.0071C130.939 23.0574 129.397 24.8144 128.256 26.1432C127.027 27.5761 126.02 29.4623 125.537 31.4082Z" fill="#35AA9A"/>
<path d="M122.653 33.1731C123.616 35.0875 123.8 37.3654 123.056 39.3708C124.153 37.3074 125.756 35.6386 127.454 34.0968C128.997 32.6953 131.22 31.2198 133.457 31.4992C133.03 34.2652 131.339 37.1337 129.07 38.6081C127.247 39.7924 125.037 40.9652 122.715 40.0794C120.806 39.4059 119.593 37.4825 118.847 35.7175C118.058 33.8501 117.533 31.6972 117.901 29.6541C119.995 29.8417 121.732 31.3423 122.653 33.1731Z" fill="#35AA9A"/>
<path d="M118.605 46.7517C119.816 44.9071 120.239 42.5982 119.743 40.4307C119.274 38.3777 117.846 36.5027 115.764 35.9197C114.896 37.8978 114.881 40.1984 115.196 42.285C115.489 44.2156 116.207 46.4684 117.991 47.5452C120.195 48.9427 122.768 48.1162 124.88 47.2802C127.606 46.2021 130.067 43.5927 131.218 40.7887C128.836 40.0338 126.401 41.2796 124.416 42.3124C122.362 43.3811 120.218 44.9051 118.605 46.7517Z" fill="#35AA9A"/>
<path d="M109.494 48.2714C109.229 50.2845 109.234 52.8383 110.797 54.3895C112.747 56.3907 115.771 56.007 118.104 55.5685C121.235 54.9799 124.761 52.8469 126.653 50.0056C124.348 48.7339 121.525 49.544 119.241 50.1999L119.109 50.2374C116.56 50.9686 113.844 52.1474 111.57 53.7591C113.385 52.1221 114.707 49.7195 114.773 47.2967C114.834 45.1291 113.895 42.8091 111.872 41.7742C110.456 43.6284 109.792 46.0102 109.494 48.2714Z" fill="#35AA9A"/>
<path d="M107.745 63.0194C105.243 62.9665 101.809 62.668 100.41 60.0832L100.39 60.0478C99.2728 57.8629 100.409 55.3093 101.314 53.4194C102.391 51.1728 103.862 48.8834 105.964 47.2402C107.981 48.9805 107.785 51.4684 107.184 53.6301C106.468 56.2007 103.993 58.3908 101.431 59.6377C104.398 58.534 107.637 57.8726 110.719 57.6788L111.032 57.6588C113.508 57.4994 116.731 57.2923 118.701 59.105C115.717 61.6381 111.479 63.0982 107.745 63.0194Z" fill="#35AA9A"/>
</svg>
