<svg width="75" height="64" viewBox="0 0 75 64" fill="none" xmlns="http://www.w3.org/2000/svg">
<path d="M15.7319 56.5048H19.1397C19.1029 56.8479 19.0293 57.5221 18.7842 58.0002C18.0119 59.655 16.2345 60.5743 12.8636 60.5743C10.1668 60.5743 8.41392 59.9002 7.47007 58.7602C6.82039 58.0002 6.48938 56.946 6.48938 55.5977C6.48938 54.3719 6.79588 53.3545 7.40872 52.6067C8.38941 51.3809 10.1546 50.6455 12.9249 50.6455C16.7003 50.6455 18.2693 51.9939 18.8455 53.4281C19.0416 53.9306 19.1029 54.4945 19.1152 54.8009H15.7074C15.6951 54.5802 15.6093 54.2983 15.4623 54.0899C15.1067 53.5751 14.3222 53.1951 12.8881 53.1951C11.5888 53.1951 10.6449 53.5261 10.2158 54.2002C9.99524 54.5312 9.9094 55.0216 9.9094 55.6344C9.9094 56.2964 10.0197 56.75 10.2527 57.0809C10.7308 57.7918 11.7972 58.0615 12.9004 58.0615C14.1874 58.0615 15.1066 57.804 15.5113 57.2157C15.6584 57.0073 15.7197 56.7622 15.7319 56.5048Z" fill="#35AA9A"/>
<path d="M29.6657 57.8652V60.4271H20.4845V50.8047H23.8064V57.8652H29.6657Z" fill="#35AA9A"/>
<path d="M41.1081 60.4271V58.0368H34.2069V56.7865H40.8262V54.4452H34.2069V53.2072H41.0223V50.8047H30.9708V60.4271H41.1081Z" fill="#35AA9A"/>
<path fill-rule="evenodd" clip-rule="evenodd" d="M51.2091 58.6497H46.0118L45.1169 60.4271H41.6479L46.784 50.8047H50.7433L55.5976 60.4271H52.055L51.2091 58.6497ZM47.0905 56.4924H50.1675L49.015 54.1633L48.6717 53.293L48.3041 54.1756L47.0905 56.4924Z" fill="#35AA9A"/>
<path fill-rule="evenodd" clip-rule="evenodd" d="M67.9163 53.7343C67.9163 52.864 67.7079 52.2388 67.2662 51.7853C66.6904 51.1724 65.697 50.8047 64.1779 50.8047H56.516V60.4271H59.7895V57.0317H62.7678L65.1578 60.4271H68.8113L65.9063 56.5046C66.5554 56.4065 67.0829 56.0143 67.4253 55.5484C67.732 55.1194 67.9163 54.482 67.9163 53.7343ZM64.7286 54.0407C64.7286 54.2001 64.7045 54.3963 64.6187 54.5433C64.4962 54.7885 64.1779 54.8866 63.6503 54.8866H59.801V53.1336H63.5886C64.1036 53.1336 64.447 53.2195 64.6187 53.5381C64.7045 53.6607 64.7286 53.8569 64.7286 54.0407Z" fill="#35AA9A"/>
<path d="M49.8415 6.98025C49.8415 7.13968 49.8174 7.33576 49.7316 7.48284C49.6091 7.72802 49.2898 7.8261 48.7629 7.8261H44.9139V6.07324H48.7016C49.2165 6.07324 49.5599 6.15899 49.7316 6.47775C49.8174 6.60034 49.8415 6.79642 49.8415 6.98025Z" fill="#35AA9A"/>
<path d="M59.4246 9.43175H62.5013L61.3488 7.10268L61.0054 6.23242L60.6379 7.11503L59.4246 9.43175Z" fill="#35AA9A"/>
<path fill-rule="evenodd" clip-rule="evenodd" d="M0.889453 6.95754C1.28634 3.04962 4.58673 0 8.59939 0H66.4009C70.6814 0 74.1506 3.46975 74.1506 7.74996V56.25C74.1506 60.5302 70.6814 64 66.4009 64H8.59939C4.31918 64 0.849426 60.5302 0.849426 56.25V7.74996C0.849426 7.48241 0.863026 7.21814 0.889453 6.95754ZM2.46398 21.6765L28.5119 30.486C29.2215 29.766 30.1872 29.1402 31.3488 28.6525C31.6159 28.5404 31.8915 28.4364 32.1745 28.3407L21.3146 17.322H29.8155L34.5877 27.7552C35.2178 27.6563 35.8657 27.5933 36.5224 27.5681C36.7409 27.5598 36.9593 27.5555 37.1774 27.5555V17.322H44.5392L39.767 27.7554C40.5021 27.8708 41.2158 28.0354 41.8935 28.2476C42.7657 28.5208 43.5595 28.8666 44.2521 29.2724L64.6523 17.322H72.5361V21.4581L42.6742 31.5576C42.0465 30.9206 41.1105 30.4071 39.9845 30.0818C38.8585 29.7566 37.5932 29.6342 36.3484 29.7301C35.1037 29.8261 33.9357 30.1362 32.9917 30.621C32.0479 31.106 31.3706 31.744 31.0457 32.4543C30.7207 33.1647 30.7627 33.9155 31.1662 34.612C31.5698 35.3084 32.3169 35.9192 33.3128 36.3669C34.3088 36.8145 35.5091 37.0791 36.7619 37.1272C37.458 37.1539 38.153 37.1132 38.8197 37.0085C39.3526 36.9248 39.8679 36.8003 40.3509 36.6369L50.2477 46.6781H43.2433L39.7665 39.0783C38.0683 39.3448 36.2822 39.3443 34.5877 39.0784L31.1114 46.6781H24.1072L32.1744 38.4929C31.4191 38.2374 30.722 37.9245 30.102 37.5614L14.5393 46.6781H2.46398V45.1572L28.5119 36.3475C27.9125 35.7394 27.5018 35.0704 27.3049 34.3716C27.0721 33.5455 27.1449 32.7028 27.5123 31.8998L2.46398 27.9681V21.6765ZM72.5361 45.3754L37.1774 33.4167L72.5361 38.9668V45.3754ZM72.5361 48.2926H2.46398V56.25C2.46398 59.6385 5.21085 62.3853 8.59939 62.3853H66.4009C69.7892 62.3853 72.5361 59.6385 72.5361 56.25V48.2926ZM19.6598 9.65256V3.74424H16.3746V9.3583C16.3746 10.3635 15.443 11.0377 13.8741 11.0377C12.2315 11.0377 11.3366 10.388 11.3366 9.34605V3.74424H8.01471V9.34605C8.01471 12.2634 10.4051 13.5015 13.7392 13.5015C17.3063 13.5015 19.6598 12.2512 19.6598 9.65256ZM30.7233 13.3667V10.8047H24.8641V3.74424H21.5422V13.3667H30.7233ZM40.5956 3.74424V6.15904H36.5261V13.3667H33.1673V6.15904H29.11V3.74424H40.5956ZM53.0283 6.67388C53.0283 5.80362 52.82 5.17844 52.3792 4.72484C51.8034 4.112 50.81 3.74424 49.2899 3.74424H41.6289V13.3667H44.9017V9.97123H47.8804L50.2708 13.3667H53.9233L51.0183 9.44414C51.6684 9.34605 52.195 8.95379 52.5383 8.48804C52.8451 8.05908 53.0283 7.42165 53.0283 6.67388ZM63.5432 11.5893H58.3455L57.4515 13.3667H53.9822L59.1181 3.74424H63.0773L67.9316 13.3667H64.389L63.5432 11.5893Z" fill="#35AA9A"/>
</svg>
