<svg width="140" height="64" viewBox="0 0 140 64" fill="none" xmlns="http://www.w3.org/2000/svg">
<path d="M9.63837 12.6476C8.76292 10.4226 9.14297 7.86435 9.94939 5.71271C10.7978 3.44863 12.2752 1.19074 14.4833 0C14.5929 2.3859 13.864 4.74314 13.0677 6.86873C12.3515 8.78059 11.4728 10.8174 10.0217 12.3986C9.79877 13.5966 9.6279 14.7914 9.50774 15.9806C9.98866 14.7243 10.7685 13.5791 11.7415 12.6583C12.9942 11.4727 14.8577 10.5578 16.607 11.0988C16.0946 13.0325 14.9268 14.886 13.5436 16.1863C12.455 17.2098 11.0179 18.5212 9.32515 18.5728C9.25542 20.3229 9.29483 22.057 9.43884 23.7675C9.67765 22.5157 10.1893 21.337 10.9286 20.4592C11.9442 19.253 13.4501 17.7793 15.3732 18.0259C15.2682 19.9829 14.4876 21.9881 13.4005 23.4948C12.5366 24.6921 11.3962 26.2182 9.77741 26.6124C10.0366 28.2932 10.3977 29.9461 10.8557 31.5635C10.8601 30.3251 11.1337 29.1095 11.6763 28.1346C12.4411 26.7597 13.6323 25.0452 15.5576 24.9111C15.8398 26.8311 15.4574 28.93 14.686 30.5993C14.0695 31.9336 13.2475 33.6352 11.7492 34.3392C12.3784 36.0794 13.1229 37.7709 13.9766 39.4036C13.6769 37.9964 13.6889 36.5135 14.0436 35.1793C14.5324 33.3399 15.7457 31.4078 17.6937 30.8471C18.3823 32.8777 18.2873 35.144 17.8873 37.208C17.5581 38.9074 16.9112 40.9033 15.4613 42.0072C16.4092 43.5369 17.4579 45.0051 18.6015 46.402C17.9871 45.032 17.6817 43.5336 17.8455 42.1618C18.0842 40.1634 18.6458 38.0256 20.687 36.9601C21.8451 38.9582 22.1134 41.1998 22.2118 43.4139C22.2913 45.2038 22.0335 47.4115 20.7904 48.8677C22.1578 50.2894 23.6332 51.62 25.2091 52.847C24.1917 51.5419 23.4793 50.0103 23.3284 48.4958C23.1154 46.3558 23.2195 44.0001 25.1186 42.4297C26.7427 44.1261 27.7119 46.6243 28.1869 48.7941C28.6069 50.7126 29.0454 52.9833 28.0454 54.8713C30.0509 56.1804 32.1919 57.3338 34.4556 58.3105C32.8628 57.1755 31.5589 55.6182 30.9377 54.0103C30.1237 51.9026 29.6202 49.3912 31.2058 47.2803C33.3303 48.6411 34.8918 50.9628 36.1219 53.0803C37.1775 54.8972 38.2701 57.4049 37.728 59.5688C38.9813 59.9941 40.267 60.3675 41.5834 60.6861L41.5051 61.0093C40.1838 60.6894 38.8931 60.3147 37.6347 59.8882C36.753 62.4937 33.8649 63.3544 31.5291 63.7344C28.2011 64.2758 24.2383 63.2268 21.3971 61.1134C22.8967 58.9942 25.9563 58.7792 28.2634 58.617L28.2934 58.6149C30.8208 58.4373 33.5544 58.6746 36.096 59.335C33.1599 58.2173 30.4125 56.8119 27.8792 55.1598L27.8418 55.2188C26.4536 57.4698 23.6664 57.5576 21.4787 57.4152C18.51 57.222 15.0826 55.417 13.099 52.9218C14.9648 51.2847 17.7207 51.7429 19.8561 52.0979L19.8664 52.0995C22.2497 52.4957 24.854 53.36 27.0401 54.6908C26.8319 54.5268 26.6281 54.3533 26.43 54.1714C24.3046 52.656 22.3439 50.9609 20.5648 49.1127C20.5441 49.1334 20.5232 49.1539 20.5021 49.1743C18.7721 50.9146 16.2526 50.4589 14.2863 49.8925C11.655 49.1346 8.92608 46.8481 7.61834 44.2231C9.64485 43.0876 12.0677 44.0233 13.9522 44.7634C16.0206 45.5757 18.2091 46.8752 19.8918 48.5317C19.7183 48.3129 19.5528 48.0843 19.3964 47.8477C17.8323 46.0824 16.4254 44.1922 15.1884 42.1981L15.1264 42.2369C13.1694 43.4999 10.952 42.5853 9.19465 41.6859C6.81192 40.4665 4.89717 37.7865 4.0698 35.1509C6.18354 34.4739 8.27193 35.8027 9.89537 36.8551C11.6709 38.006 13.4695 39.6475 14.7041 41.53C14.6134 41.3445 14.5289 41.1549 14.4511 40.9617C13.2649 38.8922 12.2572 36.7196 11.4414 34.4659L11.3993 34.4802L11.3959 34.4814C9.61646 35.1579 7.63487 34.1062 6.34298 32.9528C4.54742 31.3499 3.28185 28.8856 2.98517 26.4781C4.84039 26.2377 6.58827 27.6731 7.78329 28.8973C9.15882 30.3063 10.3934 31.9717 11.1524 33.8214C11.097 33.6205 11.0495 33.4164 11.0095 33.2102C10.3188 31.0924 9.7956 28.9082 9.45069 26.6753L9.42382 26.6786L9.41472 26.6801C7.53345 26.9941 5.79412 25.5639 4.75495 24.1758C3.29701 22.228 2.54544 19.5322 2.73381 17.0888C4.60778 17.2198 6.03472 19.0026 6.96006 20.4447C8.03105 22.1142 8.91918 24.0036 9.3082 25.9802C9.29635 25.8229 9.28932 25.6648 9.28684 25.5061C9.00118 23.2335 8.89934 20.9143 8.9925 18.5664L8.98712 18.5662C7.07443 18.4973 5.66086 16.7214 4.93106 15.1462C3.8868 12.892 3.71868 10.0427 4.41569 7.64138C6.23867 8.15304 7.25495 10.2442 7.8548 11.8538C8.54643 13.7098 9.02915 15.7339 9.03301 17.7464C9.1325 16.058 9.33287 14.3563 9.63837 12.6476Z" fill="#35AA9A"/>
<path d="M47.3096 8.48218V16.5433C47.3096 20.0888 44.0985 21.7947 39.2318 21.7947C34.6828 21.7947 31.4216 20.1056 31.4216 16.1252V8.48218H35.9539V16.1252C35.9539 17.5468 37.1747 18.4331 39.4157 18.4331C41.5565 18.4331 42.8276 17.5133 42.8276 16.1419V8.48218H47.3096Z" fill="#35AA9A"/>
<path d="M62.4039 18.1153V21.6107H49.8774V8.48218H54.4097V18.1153H62.4039Z" fill="#35AA9A"/>
<path d="M75.8739 11.7769V8.48218H60.2032V11.7769H65.739V21.6107H70.3214V11.7769H75.8739Z" fill="#35AA9A"/>
<path fill-rule="evenodd" clip-rule="evenodd" d="M91.9497 9.82023C92.5519 10.439 92.8372 11.292 92.8372 12.4793C92.8372 13.4995 92.5864 14.3692 92.1675 14.9545C91.6989 15.59 90.9796 16.1252 90.0935 16.259L94.0581 21.6107H89.0738L85.812 16.9781H81.7485V21.6107H77.2831V8.48218H87.7358C89.8097 8.48218 91.1643 8.98391 91.9497 9.82023ZM88.3379 13.5832C88.4551 13.3824 88.4882 13.1148 88.4882 12.8975C88.4882 12.6465 88.4551 12.3789 88.3379 12.2118C88.1037 11.7769 87.6352 11.6599 86.9324 11.6599H81.7652V14.0514H87.0164C87.7358 14.0514 88.1712 13.9176 88.3379 13.5832Z" fill="#35AA9A"/>
<path fill-rule="evenodd" clip-rule="evenodd" d="M100.091 19.1858H107.183L108.336 21.6107H113.17L106.547 8.48218H101.145L94.1382 21.6107H98.8703L100.091 19.1858ZM105.76 16.2422H101.563L103.219 13.0814L103.721 11.8772L104.189 13.0646L105.76 16.2422Z" fill="#35AA9A"/>
<path fill-rule="evenodd" clip-rule="evenodd" d="M91.4718 24.083C88.6661 24.083 87.1902 25.4128 87.1902 27.3668C87.1902 29.5723 88.7391 30.6912 91.4718 30.6912C94.48 30.6912 95.745 29.3939 95.745 27.3668C95.745 25.3074 94.3174 24.083 91.4718 24.083ZM91.4718 29.0615C89.8746 29.0615 89.4116 28.4047 89.4116 27.3912C89.4116 26.3939 89.9146 25.7372 91.4635 25.7372C93.1584 25.7372 93.5388 26.475 93.5388 27.3912C93.5388 28.3642 93.0771 29.0615 91.4718 29.0615Z" fill="#35AA9A"/>
<path d="M83.0318 30.5943V26.824H78.7994V28.1943H81.0615C81.0454 28.2998 80.9642 28.5025 80.8588 28.624C80.6237 28.8998 79.9993 29.143 79.1885 29.143C78.3453 29.143 77.8021 28.924 77.5102 28.5835C77.3156 28.3321 77.2021 27.9754 77.2021 27.4403C77.2021 26.8808 77.3156 26.4998 77.5345 26.2484C77.8507 25.8917 78.3858 25.7376 79.1724 25.7376C79.8778 25.7376 80.3642 25.8997 80.5913 26.1024C80.7373 26.2241 80.8507 26.3944 80.8751 26.5078H82.975C82.967 26.3051 82.9021 25.9808 82.7886 25.7457C82.2859 24.7241 81.1183 24.116 79.1319 24.116C77.4048 24.116 76.2453 24.6429 75.6048 25.4376C75.1832 25.9808 74.9886 26.6619 74.9886 27.424C74.9886 28.2674 75.2155 28.9889 75.5886 29.4674C76.221 30.2863 77.348 30.6916 78.7021 30.6916C79.8941 30.6916 80.7129 30.4079 81.2318 29.9782L81.2886 30.5943H83.0318Z" fill="#35AA9A"/>
<path d="M60.9444 26.7429C62.5903 26.9212 63.2957 27.5051 63.2957 28.6159C63.2957 29.9618 61.9822 30.6914 59.3957 30.6914C56.9876 30.6914 55.9498 30.0104 55.5524 29.1186C55.4632 28.9077 55.4227 28.6483 55.3983 28.4861H57.7335C57.7498 28.5834 57.8065 28.7293 57.8876 28.8266C58.0821 29.0618 58.6254 29.1996 59.5497 29.1996C60.7417 29.1996 61.0255 29.0293 61.0255 28.7132C61.0255 28.3725 60.7336 28.2996 59.6551 28.1861C59.2255 28.1456 58.5443 28.0807 58.2606 28.0564C56.2012 27.8698 55.439 27.2293 55.439 26.1348C55.439 24.9995 56.7849 24.1321 59.2416 24.1321C61.4227 24.1321 62.4363 24.7807 62.8579 25.5915C62.9876 25.8348 63.0686 26.1104 63.093 26.3049H60.7578C60.7497 26.2158 60.7173 26.1266 60.6282 26.0131C60.4497 25.778 59.9957 25.6239 59.1848 25.6239C58.0416 25.6239 57.7416 25.7617 57.7416 26.0536C57.7416 26.378 58.1228 26.451 59.3957 26.5888C59.8902 26.6293 60.6768 26.7104 60.9444 26.7429Z" fill="#35AA9A"/>
<path fill-rule="evenodd" clip-rule="evenodd" d="M37.6663 24.773C38.096 25.1135 38.3392 25.6892 38.3392 26.5243C38.3392 27.2054 38.169 27.7161 37.8446 28.0729C37.4068 28.5756 36.6852 28.8027 35.7447 28.8108C35.4527 28.8189 32.9554 28.8108 32.9554 28.8108V30.5945H30.7743V24.2297H35.7121C36.5879 24.2297 37.2528 24.4081 37.6663 24.773ZM36.0528 27.0188C36.1176 26.9054 36.1501 26.7594 36.1501 26.5567C36.1501 26.346 36.1094 26.1675 36.0365 26.0702C35.8987 25.8675 35.6392 25.7702 35.2176 25.7702H32.9392V27.327H35.2013C35.6554 27.327 35.923 27.2216 36.0528 27.0188Z" fill="#35AA9A"/>
<path fill-rule="evenodd" clip-rule="evenodd" d="M46.3181 24.8784C46.6101 25.1784 46.7479 25.5919 46.7479 26.1675C46.7479 26.6621 46.6262 27.0837 46.4235 27.3675C46.1966 27.6756 45.8479 27.9351 45.4181 28L47.3398 30.5945H44.9236L43.3424 28.3486H41.3721V30.5945H39.2073V24.2297H44.2749C45.2803 24.2297 45.9371 24.473 46.3181 24.8784ZM44.5668 26.7027C44.6236 26.6054 44.6397 26.4756 44.6397 26.3702C44.6397 26.2487 44.6236 26.1189 44.5668 26.0378C44.4533 25.827 44.2263 25.7702 43.8858 25.7702H41.3803V26.9297H43.9263C44.2749 26.9297 44.4858 26.8648 44.5668 26.7027Z" fill="#35AA9A"/>
<path d="M54.7413 30.5945V29.0135H50.1764V28.1864H54.5548V26.6378H50.1764V25.8189H54.6845V24.2297H48.0358V30.5945H54.7413Z" fill="#35AA9A"/>
<path d="M71.1863 25.827V24.2297H63.589V25.827H66.2727V30.5945H68.4943V25.827H71.1863Z" fill="#35AA9A"/>
<path d="M74.1071 24.2297V30.5945H71.8773V24.2297H74.1071Z" fill="#35AA9A"/>
<path d="M86.3098 24.2297V30.5945H84.0797V24.2297H86.3098Z" fill="#35AA9A"/>
<path d="M104.348 24.2297V28.1378C104.348 29.8567 102.791 30.6838 100.431 30.6838C98.2266 30.6838 96.6446 29.8649 96.6446 27.9351V24.2297H98.8425V27.9351C98.8425 28.6242 99.4337 29.054 100.521 29.054C101.559 29.054 102.175 28.6081 102.175 27.9432V24.2297H104.348Z" fill="#35AA9A"/>
<path d="M113.101 28.6159C113.101 27.5051 112.395 26.9212 110.75 26.7429C110.481 26.7104 109.696 26.6293 109.201 26.5888C107.928 26.451 107.546 26.378 107.546 26.0536C107.546 25.7617 107.846 25.6239 108.99 25.6239C109.8 25.6239 110.255 25.778 110.433 26.0131C110.523 26.1266 110.554 26.2158 110.563 26.3049H112.898C112.873 26.1104 112.792 25.8348 112.663 25.5915C112.241 24.7807 111.228 24.1321 109.047 24.1321C106.59 24.1321 105.243 24.9995 105.243 26.1348C105.243 27.2293 106.007 27.8698 108.066 28.0564L108.198 28.0681L108.418 28.0882L109.46 28.1861C110.539 28.2996 110.83 28.3725 110.83 28.7132C110.83 29.0293 110.547 29.1996 109.355 29.1996C108.431 29.1996 107.888 29.0618 107.692 28.8266C107.612 28.7293 107.554 28.5834 107.539 28.4861H105.203C105.228 28.6483 105.268 28.9077 105.358 29.1186C105.755 30.0104 106.792 30.6914 109.201 30.6914C111.788 30.6914 113.101 29.9618 113.101 28.6159Z" fill="#35AA9A"/>
<path fill-rule="evenodd" clip-rule="evenodd" d="M56.4016 33.0315C54.5784 33.0315 53.6193 33.8958 53.6193 35.1658C53.6193 36.599 54.6258 37.3262 56.4016 37.3262C58.3568 37.3262 59.1787 36.4832 59.1787 35.1658C59.1787 33.8273 58.2513 33.0315 56.4016 33.0315ZM56.4016 36.2671C55.3636 36.2671 55.0632 35.8402 55.0632 35.1815C55.0632 34.5334 55.3899 34.1065 56.3964 34.1065C57.4977 34.1065 57.7455 34.586 57.7455 35.1815C57.7455 35.8138 57.4451 36.2671 56.4016 36.2671Z" fill="#35AA9A"/>
<path d="M46.2623 35.9771C46.2623 35.2551 45.8039 34.8756 44.7341 34.7597C44.5602 34.7387 44.0491 34.686 43.7276 34.6597C42.9003 34.57 42.6526 34.5226 42.6526 34.3119C42.6526 34.1221 42.8476 34.0326 43.5906 34.0326C44.1176 34.0326 44.4126 34.1326 44.5287 34.2854C44.5865 34.3593 44.6076 34.4172 44.613 34.4752H46.1306C46.1148 34.3487 46.0621 34.1695 45.9778 34.0115C45.7037 33.4845 45.045 33.063 43.6274 33.063C42.0309 33.063 41.1561 33.6267 41.1561 34.3645C41.1561 35.076 41.6514 35.4923 42.9898 35.6134C43.1743 35.6293 43.617 35.6714 43.8963 35.6978C44.5971 35.7715 44.7868 35.819 44.7868 36.0403C44.7868 36.2458 44.6024 36.3565 43.8278 36.3565C43.227 36.3565 42.8739 36.2669 42.7474 36.1141C42.6948 36.0508 42.6579 35.956 42.6474 35.8927H41.1296C41.1455 35.9982 41.1718 36.1667 41.2298 36.3038C41.4881 36.8834 42.1626 37.326 43.7276 37.326C45.4087 37.326 46.2623 36.8518 46.2623 35.9771Z" fill="#35AA9A"/>
<path fill-rule="evenodd" clip-rule="evenodd" d="M35.7408 36.0931C35.7408 36.3777 35.6617 36.657 35.5037 36.8414C35.2613 37.1365 34.808 37.2629 34.2232 37.2629H30.5502V33.1262H34.123C34.6921 33.1262 35.0558 33.2633 35.256 33.4688C35.4352 33.6479 35.5143 33.8851 35.5143 34.1538C35.5143 34.4227 35.451 34.644 35.314 34.8073C35.2032 34.9444 35.0136 35.0497 34.8134 35.0761C35.1084 35.1129 35.3878 35.2605 35.5458 35.466C35.6776 35.6188 35.7408 35.8507 35.7408 36.0931ZM33.965 34.644C34.0176 34.586 34.0493 34.5016 34.0493 34.4016C34.0493 34.3014 34.0176 34.2171 33.9491 34.1592C33.8754 34.0906 33.7383 34.0642 33.538 34.0642H31.9309V34.7388H33.575C33.7541 34.7388 33.8912 34.7125 33.965 34.644ZM33.7278 36.325C33.9754 36.325 34.123 36.2933 34.2074 36.2144C34.26 36.1616 34.2811 36.0826 34.2811 35.9824C34.2811 35.877 34.2548 35.7981 34.1915 35.7348C34.1125 35.6663 33.9754 35.6346 33.7436 35.6346H31.9309V36.325H33.7278Z" fill="#35AA9A"/>
<path d="M40.7029 36.2354V37.2629H36.3449V33.1262H40.666V34.1592H37.736V34.6914H40.5816V35.6979H37.736V36.2354H40.7029Z" fill="#35AA9A"/>
<path d="M51.3902 33.1262V34.1644H49.6407V37.2629H48.1969V34.1644H46.4526V33.1262H51.3902Z" fill="#35AA9A"/>
<path d="M64.0008 33.1262V34.1749H61.1922V34.7599H63.8691V35.7981H61.1922V37.2629H59.7746V33.1262H64.0008Z" fill="#35AA9A"/>
<path d="M71.1413 34.1644V33.1262H66.2037V34.1644H67.948V37.2629H69.3919V34.1644H71.1413Z" fill="#35AA9A"/>
<path d="M76.5282 33.1262V37.2629H75.1159V35.7611H72.9975V37.2629H71.5853V33.1262H72.9975V34.6334H75.1159V33.1262H76.5282Z" fill="#35AA9A"/>
<path d="M81.7225 37.2629V36.2354H78.7556V35.6979H81.6012V34.6914H78.7556V34.1592H81.6856V33.1262H77.3645V37.2629H81.7225Z" fill="#35AA9A"/>
<path d="M90.4588 33.1262H91.823L90.3113 37.2629H88.7624C88.7624 37.2629 87.9343 34.7916 87.9288 34.7229C87.9246 34.7916 87.0909 37.2629 87.0909 37.2629H85.5475L83.9982 33.1262H85.531C85.531 33.1262 86.4281 35.7294 86.4281 35.7927C86.4281 35.7294 87.2549 33.1262 87.2549 33.1262H88.7363C88.7363 33.1262 89.5686 35.7294 89.5686 35.7927C89.5686 35.7294 90.4588 33.1262 90.4588 33.1262Z" fill="#35AA9A"/>
<path fill-rule="evenodd" clip-rule="evenodd" d="M94.5298 33.0315C92.7067 33.0315 91.7476 33.8958 91.7476 35.1658C91.7476 36.599 92.7535 37.3262 94.5298 37.3262C96.4852 37.3262 97.3065 36.4832 97.3065 35.1658C97.3065 33.8273 96.3791 33.0315 94.5298 33.0315ZM94.5298 36.2671C93.4921 36.2671 93.1917 35.8402 93.1917 35.1815C93.1917 34.5334 93.5183 34.1065 94.5243 34.1065C95.6267 34.1065 95.8733 34.586 95.8733 35.1815C95.8733 35.8138 95.5729 36.2671 94.5298 36.2671Z" fill="#35AA9A"/>
<path fill-rule="evenodd" clip-rule="evenodd" d="M102.525 33.5479C102.714 33.7429 102.803 34.0116 102.803 34.3857C102.803 34.7072 102.725 34.9812 102.592 35.1657C102.445 35.3659 102.219 35.5346 101.939 35.5766L103.188 37.2629H101.618L100.59 35.8033H99.3098V37.2629H97.9029V33.1262H101.196C101.85 33.1262 102.277 33.2844 102.525 33.5479ZM101.386 34.7335C101.422 34.6703 101.433 34.586 101.433 34.5175C101.433 34.4384 101.422 34.3542 101.386 34.3014C101.312 34.1644 101.165 34.1275 100.943 34.1275H99.3153V34.8811H100.969C101.196 34.8811 101.333 34.839 101.386 34.7335Z" fill="#35AA9A"/>
<path d="M107.588 37.2629V36.1616H105.069V33.1262H103.641V37.2629H107.588Z" fill="#35AA9A"/>
<path fill-rule="evenodd" clip-rule="evenodd" d="M113.176 35.1181C113.176 35.7611 113.112 36.1089 112.923 36.4357C112.638 36.9572 112.074 37.2629 111.078 37.2629H108.148V33.1262H111.046C112.037 33.1262 112.623 33.4055 112.912 33.8851C113.118 34.2066 113.176 34.549 113.176 35.1181ZM110.809 36.2459C111.257 36.2459 111.511 36.1405 111.664 35.9087C111.759 35.7664 111.785 35.4344 111.785 35.1446C111.78 34.8811 111.748 34.6018 111.664 34.4753C111.5 34.2277 111.253 34.1381 110.82 34.1381H109.561V36.2459H110.809Z" fill="#35AA9A"/>
<path d="M56.6476 57.3816H54.464C54.464 57.3816 53.0391 61.5467 53.0391 61.6478C53.0391 61.5467 51.707 57.3816 51.707 57.3816H49.3378C49.3378 57.3816 48.014 61.5467 48.014 61.6478C48.014 61.5467 46.5808 57.3816 46.5808 57.3816H44.1272L46.606 64.0001H49.0763C49.0763 64.0001 50.4085 60.0459 50.4169 59.9363C50.4254 60.0459 51.749 64.0001 51.749 64.0001H54.2278L56.6476 57.3816Z" fill="#35AA9A"/>
<path d="M59.6359 64.0001V57.3816H57.3173V64.0001H59.6359Z" fill="#35AA9A"/>
<path d="M68.6545 57.3816V64.0001H66.3948L63.1151 60.3157V64.0001H60.9399V57.3816H63.3174L66.496 60.9818V57.3816H68.6545Z" fill="#35AA9A"/>
<path d="M77.6863 64.0001V57.3816H75.5279V60.9818L72.3494 57.3816H69.9717V64.0001H72.1469V60.3157L75.4268 64.0001H77.6863Z" fill="#35AA9A"/>
<path d="M85.9776 62.356V64.0001H79.0043V57.3816H85.9183V59.0341H81.2302V59.8857H85.7833V61.4961H81.2302V62.356H85.9776Z" fill="#35AA9A"/>
<path fill-rule="evenodd" clip-rule="evenodd" d="M94.8892 59.3967C94.8892 58.7981 94.7459 58.3681 94.4427 58.0561C94.0458 57.6346 93.3637 57.3816 92.3178 57.3816H87.0483V64.0001H89.3V61.6646H91.3491L92.993 64.0001H95.5052L93.507 61.3022C93.9535 61.2347 94.3159 60.9649 94.553 60.6445C94.7624 60.3494 94.8892 59.9109 94.8892 59.3967ZM92.6968 59.6075C92.6968 59.7171 92.6802 59.852 92.621 59.9531C92.5369 60.1218 92.3178 60.1892 91.9554 60.1892H89.3082V58.9835H91.9127C92.2668 58.9835 92.5038 59.0425 92.621 59.2618C92.6802 59.3461 92.6968 59.481 92.6968 59.6075Z" fill="#35AA9A"/>
<path d="M49.9155 45.7043L49.0012 42.8901L48.0868 45.7043H45.1277L47.5216 47.4435L46.6073 50.2577L49.0012 48.5185L51.395 50.2577L50.4807 47.4435L52.8745 45.7043H49.9155Z" fill="#35AA9A"/>
<path d="M59.5573 42.8887L60.4903 45.7029H63.5097L61.067 47.4422L62.0001 50.2562L59.5573 48.517L57.1146 50.2562L58.0477 47.4422L55.6049 45.7029H58.6242L59.5573 42.8887Z" fill="#35AA9A"/>
<path d="M70.9628 45.7029L70.0298 42.8887L69.0968 45.7029H66.0773L68.5201 47.4422L67.587 50.2562L70.0298 48.517L72.4725 50.2562L71.5395 47.4422L73.9823 45.7029H70.9628Z" fill="#35AA9A"/>
<path d="M80.502 42.8887L81.4351 45.7029H84.4545L82.0118 47.4422L82.9449 50.2562L80.502 48.517L78.0594 50.2562L78.9924 47.4422L76.5496 45.7029H79.5691L80.502 42.8887Z" fill="#35AA9A"/>
<path d="M91.9735 45.7029L91.0585 42.8887L90.1435 45.7029H87.1849L89.5785 47.4422L88.6649 50.2562L91.0585 48.517L93.4521 50.2562L92.5385 47.4422L94.9321 45.7029H91.9735Z" fill="#35AA9A"/>
<path d="M130.362 12.7084C131.237 10.4836 130.857 7.92503 130.051 5.77339C129.202 3.50945 127.725 1.25129 125.517 0.0605469C125.407 2.44658 126.136 4.80368 126.932 6.92928C127.649 8.841 128.527 10.8777 129.978 12.4587C130.201 13.6565 130.372 14.8509 130.492 16.0399C130.011 14.7841 129.232 13.6395 128.259 12.719C127.007 11.5332 125.142 10.6185 123.394 11.1595C123.906 13.093 125.073 14.9467 126.457 16.247C127.545 17.2705 128.983 18.5818 130.675 18.6335C130.745 20.3837 130.705 22.1179 130.561 23.8286C130.322 22.5768 129.811 21.398 129.071 20.5203C128.055 19.3139 126.549 17.8404 124.627 18.0869C124.732 20.044 125.513 22.0492 126.6 23.5559C127.463 24.7532 128.604 26.2794 130.223 26.6737C129.964 28.3541 129.603 30.0068 129.144 31.624C129.14 30.3858 128.867 29.1702 128.324 28.1953C127.559 26.8205 126.367 25.1059 124.442 24.9718C124.16 26.8918 124.543 28.9907 125.314 30.66C125.93 31.9943 126.753 33.6959 128.251 34.3999C127.621 36.1404 126.877 37.8323 126.023 39.4651C126.323 38.0576 126.311 36.5744 125.957 35.2398C125.467 33.4004 124.255 31.4682 122.306 30.9076C121.617 32.9385 121.712 35.2045 122.113 37.2685C122.443 38.968 123.089 40.964 124.539 42.0679C123.591 43.5985 122.542 45.0673 121.397 46.4649C122.013 45.0943 122.317 43.5952 122.153 42.2228C121.915 40.2241 121.354 38.0864 119.313 37.0212C118.154 39.0193 117.886 41.2609 117.788 43.475C117.708 45.265 117.965 47.4729 119.21 48.9292C117.841 50.3505 116.367 51.6807 114.792 52.9074C115.809 51.6023 116.521 50.0709 116.672 48.5564C116.885 46.4165 116.782 44.0609 114.881 42.4904C113.258 44.1867 112.288 46.6849 111.814 48.8548C111.394 50.7731 110.956 53.0439 111.955 54.932C109.95 56.2414 107.808 57.3949 105.544 58.3719C107.137 57.2367 108.441 55.6791 109.062 54.071C109.877 51.9634 110.38 49.4519 108.795 47.341C106.67 48.7018 105.109 51.0234 103.878 53.141C102.822 54.958 101.73 57.4659 102.273 59.6298C101.019 60.055 99.7329 60.4285 98.4169 60.7471L98.4955 61.0702C99.8156 60.7504 101.107 60.3757 102.365 59.9492C103.247 62.5545 106.135 63.4155 108.471 63.7954C111.799 64.3368 115.762 63.2879 118.604 61.1744C117.103 59.0551 114.044 58.8402 111.737 58.678L111.707 58.6759C109.179 58.4983 106.445 58.7356 103.904 59.3961C106.839 58.2783 109.587 56.8728 112.121 55.2205L112.156 55.2756C113.543 57.5304 116.333 57.6185 118.521 57.4761C121.49 57.2829 124.918 55.4778 126.901 52.9826C125.035 51.3458 122.28 51.8037 120.144 52.1586L120.133 52.1605C117.751 52.5565 115.147 53.4204 112.962 54.7508C113.17 54.5869 113.373 54.4137 113.571 54.2319C115.696 52.7168 117.655 51.022 119.434 49.1741C119.459 49.1987 119.484 49.223 119.509 49.2471C121.24 50.9739 123.752 50.5183 125.714 49.9532C128.346 49.1953 131.075 46.9087 132.382 44.2838C130.355 43.1483 127.933 44.0838 126.049 44.8241C123.978 45.6371 121.788 46.9381 120.104 48.5968C120.278 48.3777 120.445 48.1487 120.602 47.9117C122.166 46.1455 123.574 44.2541 124.811 42.2588L124.865 42.292L124.879 42.3006C126.834 43.5591 129.05 42.6453 130.806 41.7465C133.188 40.5271 135.104 37.8472 135.931 35.2116C133.817 34.5346 131.729 35.8634 130.106 36.9158C128.328 38.0674 126.528 39.71 125.294 41.5939C125.385 41.408 125.47 41.2178 125.549 41.0242C126.735 38.954 127.743 36.7809 128.558 34.5266L128.601 34.5409L128.608 34.5436C130.387 35.2171 132.367 34.1661 133.658 33.0135C135.453 31.4106 136.719 28.9463 137.015 26.5387C135.16 26.2984 133.412 27.7338 132.217 28.9579C130.842 30.3678 129.606 32.0343 128.846 33.8855C128.903 33.6835 128.951 33.4783 128.991 33.2709C129.681 31.1532 130.205 28.9692 130.55 26.7365L130.602 26.7434C132.476 27.0468 134.21 25.6207 135.246 24.2365C136.704 22.2887 137.455 19.5928 137.266 17.1493C135.393 17.2805 133.966 19.0631 133.041 20.5054C131.969 22.1757 131.08 24.0662 130.691 26.044C130.704 25.8858 130.711 25.7268 130.714 25.5672C130.999 23.2945 131.101 20.9751 131.007 18.6273C132.921 18.5602 134.339 16.7831 135.069 15.2072C136.113 12.9531 136.281 10.1037 135.585 7.70248C133.762 8.21414 132.745 10.305 132.145 11.9147C131.454 13.7706 130.971 15.795 130.967 17.8075C130.868 16.1191 130.667 14.4173 130.362 12.7084Z" fill="#35AA9A"/>
</svg>
