<svg width="167" height="136" viewBox="0 0 167 136" fill="none" xmlns="http://www.w3.org/2000/svg">
<path d="M43.7141 87.3627C57.1422 72.4448 57.7271 67.3417 43.7141 56.0925C28.9802 43.2883 51.369 31.0381 75.1576 10C57.7449 27.4042 38.5941 41.844 53.0848 54.7537C66.8992 65.5596 75.497 68.0459 57.432 84.3026C39.3669 100.559 30.4798 108.658 13.5 125.518C21.8843 114.104 35.1239 96.906 43.7141 87.3627Z" fill="#4CC7B6"/>
<path d="M78.1311 64.1597L74.6787 55.6935H75.4437L78.6215 63.5189L85.1734 55.6935H85.9188L78.7981 64.1986L77.6603 69.4802H76.9934L78.1311 64.1597Z" fill="#090B08"/>
<path d="M87.265 69.6744C86.428 69.6744 85.7283 69.4867 85.166 69.1113C84.6037 68.7359 84.1787 68.231 83.891 67.5967C83.6163 66.9494 83.479 66.2439 83.479 65.4801C83.479 64.5999 83.6359 63.7843 83.9498 63.0335C84.2767 62.2827 84.7148 61.6225 85.2641 61.0529C85.8134 60.4703 86.4411 60.0237 87.1473 59.713C87.8534 59.3894 88.5792 59.2276 89.3247 59.2276C90.1616 59.2276 90.8613 59.4218 91.4236 59.8101C91.9859 60.1855 92.4044 60.6969 92.679 61.3441C92.9537 61.9784 93.091 62.684 93.091 63.4607C93.091 64.328 92.9341 65.1371 92.6202 65.8879C92.3063 66.6387 91.8748 67.2989 91.3255 67.8685C90.7893 68.4381 90.1682 68.8847 89.462 69.2084C88.7689 69.5191 88.0365 69.6744 87.265 69.6744ZM87.3827 69.053C88.0234 69.053 88.6446 68.9171 89.2462 68.6453C89.8478 68.3734 90.3839 67.985 90.8547 67.4802C91.3386 66.9753 91.7178 66.3928 91.9925 65.7326C92.2802 65.0594 92.424 64.341 92.424 63.5772C92.424 62.8911 92.2998 62.2697 92.0513 61.7131C91.8159 61.1435 91.4628 60.6904 90.992 60.3538C90.5213 60.0172 89.9262 59.849 89.207 59.849C88.5662 59.849 87.945 59.9914 87.3434 60.2761C86.7419 60.548 86.1991 60.9428 85.7153 61.4606C85.2445 61.9655 84.8652 62.5545 84.5775 63.2277C84.3029 63.8879 84.1656 64.6063 84.1656 65.383C84.1656 66.0691 84.2833 66.6905 84.5187 67.2472C84.7541 67.8038 85.1137 68.2439 85.5976 68.5676C86.0814 68.8912 86.6765 69.053 87.3827 69.053Z" fill="#090B08"/>
<path d="M97.2581 69.6744C95.6757 69.6744 94.8845 68.7812 94.8845 66.9947C94.8845 66.7229 94.9041 66.4316 94.9433 66.1209C94.9826 65.8102 95.0414 65.4801 95.1199 65.1306L96.3557 59.3829H97.0227L95.8065 65.0529C95.6495 65.7261 95.5711 66.3216 95.5711 66.8394C95.5711 68.3151 96.2249 69.053 97.5327 69.053C98.1212 69.053 98.7097 68.9171 99.2981 68.6453C99.8866 68.3734 100.436 67.9915 100.946 67.4996C101.469 66.9947 101.887 66.4251 102.201 65.7908L103.574 59.3829H104.241L102.398 68.0239C102.371 68.1404 102.345 68.2569 102.319 68.3734C102.293 68.477 102.28 68.5417 102.28 68.5676C102.28 68.7618 102.378 68.8588 102.574 68.8588L102.417 69.4802C102.352 69.4802 102.293 69.4802 102.241 69.4802C102.188 69.4802 102.143 69.4737 102.103 69.4608C101.959 69.4349 101.842 69.3702 101.75 69.2666C101.672 69.1631 101.632 69.0336 101.632 68.8783C101.632 68.8394 101.639 68.7812 101.652 68.7035C101.665 68.6258 101.698 68.464 101.75 68.2181C101.802 67.9592 101.887 67.5514 102.005 66.9947C101.404 67.8232 100.678 68.477 99.8278 68.9559C98.9777 69.4349 98.1212 69.6744 97.2581 69.6744Z" fill="#090B08"/>
<path d="M107.373 59.3829H108.021L107.472 61.9461C107.995 61.1694 108.596 60.5674 109.276 60.1402C109.956 59.7001 110.643 59.4541 111.336 59.4023C111.414 59.3894 111.486 59.3829 111.552 59.3829C111.63 59.3829 111.696 59.3894 111.748 59.4023L111.611 60.0043C110.721 60.0431 109.884 60.3409 109.1 60.8975C108.315 61.4412 107.694 62.1856 107.236 63.1306L105.883 69.4802H105.216L107.373 59.3829Z" fill="#090B08"/>
<path d="M121.37 69.5773C120.285 69.5773 119.363 69.409 118.604 69.0724C117.846 68.7359 117.153 68.2051 116.525 67.4802L117.015 66.9753C117.264 67.286 117.532 67.5643 117.82 67.8103C118.121 68.0562 118.454 68.2698 118.82 68.4511C119.186 68.6194 119.585 68.7488 120.017 68.8394C120.461 68.93 120.958 68.9754 121.508 68.9754C122.423 68.9754 123.221 68.8459 123.901 68.587C124.594 68.3151 125.13 67.9268 125.509 67.4219C125.889 66.9171 126.078 66.3151 126.078 65.6161C126.078 65.0335 125.941 64.5869 125.666 64.2762C125.405 63.9526 124.999 63.6872 124.45 63.4801C123.914 63.273 123.234 63.0723 122.41 62.8781C121.599 62.671 120.913 62.4704 120.35 62.2762C119.788 62.0691 119.356 61.7972 119.056 61.4606C118.768 61.1111 118.624 60.6127 118.624 59.9655C118.624 59.3053 118.755 58.7098 119.016 58.179C119.278 57.6353 119.651 57.1758 120.134 56.8004C120.618 56.412 121.187 56.1143 121.841 55.9071C122.508 55.7 123.24 55.5964 124.038 55.5964C124.627 55.5964 125.156 55.6547 125.627 55.7712C126.098 55.8877 126.516 56.0689 126.882 56.3149C127.262 56.5609 127.589 56.8651 127.863 57.2275L127.373 57.7324C127.19 57.4735 126.981 57.247 126.745 57.0528C126.523 56.8586 126.268 56.7033 125.98 56.5868C125.705 56.4573 125.405 56.3667 125.078 56.3149C124.751 56.2502 124.391 56.2178 123.999 56.2178C122.979 56.2178 122.122 56.3796 121.429 56.7033C120.749 57.0269 120.233 57.4606 119.879 58.0043C119.526 58.548 119.35 59.1499 119.35 59.8101C119.35 60.3279 119.474 60.7292 119.723 61.014C119.971 61.2988 120.344 61.5318 120.841 61.7131C121.351 61.8943 122.005 62.082 122.802 62.2762C123.692 62.4963 124.43 62.7228 125.019 62.9558C125.62 63.1888 126.072 63.4995 126.372 63.8879C126.673 64.2633 126.824 64.7876 126.824 65.4607C126.824 66.1598 126.68 66.7682 126.392 67.286C126.117 67.8038 125.732 68.2375 125.235 68.587C124.751 68.9236 124.175 69.176 123.508 69.3443C122.855 69.4996 122.142 69.5773 121.37 69.5773Z" fill="#090B08"/>
<path d="M129.924 69.5773C129.532 69.5773 129.218 69.4673 128.982 69.2472C128.76 69.0271 128.649 68.7229 128.649 68.3346C128.649 68.2569 128.649 68.1857 128.649 68.121C128.662 68.0433 128.675 67.9656 128.688 67.888L131.395 55.3052H132.062L129.375 67.752C129.362 67.8038 129.349 67.8556 129.336 67.9074C129.336 67.9592 129.336 68.0174 129.336 68.0821C129.336 68.6776 129.669 68.9754 130.336 68.9754C130.48 68.9754 130.65 68.9559 130.846 68.9171C131.042 68.8783 131.225 68.833 131.395 68.7812L131.434 69.3249C131.238 69.3896 130.99 69.4479 130.689 69.4996C130.388 69.5514 130.133 69.5773 129.924 69.5773Z" fill="#090B08"/>
<path d="M135.07 59.3829H135.737L133.579 69.4802H132.912L135.07 59.3829ZM135.953 55.3052H136.62L136.267 56.9363H135.6L135.953 55.3052Z" fill="#090B08"/>
<path d="M138.825 59.3829H139.452L138.923 61.9073C139.511 61.0529 140.185 60.3927 140.943 59.9266C141.702 59.4606 142.46 59.2276 143.219 59.2276C143.742 59.2276 144.18 59.3441 144.533 59.5771C144.899 59.8101 145.167 60.1467 145.337 60.5868C145.507 61.014 145.566 61.5383 145.514 62.1597C145.867 61.5254 146.285 60.9946 146.769 60.5674C147.253 60.1273 147.776 59.7972 148.338 59.5771C148.901 59.3441 149.45 59.2276 149.986 59.2276C150.496 59.2276 150.915 59.3247 151.242 59.5189C151.569 59.713 151.811 59.9978 151.967 60.3732C152.137 60.7487 152.223 61.2082 152.223 61.7519C152.223 62.0367 152.203 62.3474 152.164 62.684C152.124 63.0205 152.059 63.383 151.967 63.7714L150.751 69.4802H150.084L151.281 63.849C151.425 63.137 151.497 62.5221 151.497 62.0043C151.497 61.2794 151.346 60.7422 151.046 60.3927C150.758 60.0302 150.307 59.849 149.692 59.849C149.13 59.849 148.574 59.9914 148.025 60.2761C147.488 60.548 146.992 60.9364 146.534 61.4412C146.076 61.9331 145.69 62.5157 145.376 63.1888L144.043 69.4802H143.376L144.572 63.849C144.651 63.4736 144.709 63.1306 144.749 62.8199C144.788 62.5092 144.808 62.2244 144.808 61.9655C144.808 61.2406 144.657 60.7098 144.356 60.3732C144.069 60.0237 143.618 59.849 143.003 59.849C142.166 59.849 141.355 60.1532 140.57 60.7616C139.786 61.37 139.158 62.1726 138.687 63.1694L137.334 69.4802H136.667L138.825 59.3829Z" fill="#090B08"/>
<path d="M77.6015 85.7169C76.5161 85.7169 75.5941 85.5486 74.8356 85.2121C74.0771 84.8755 73.384 84.3447 72.7563 83.6198L73.2467 83.1149C73.4952 83.4256 73.7633 83.704 74.051 83.9499C74.3517 84.1959 74.6852 84.4095 75.0514 84.5907C75.4176 84.759 75.8164 84.8884 76.248 84.9791C76.6926 85.0697 77.1896 85.115 77.7388 85.115C78.6542 85.115 79.452 84.9855 80.132 84.7266C80.8251 84.4548 81.3613 84.0664 81.7405 83.5616C82.1198 83.0567 82.3094 82.4547 82.3094 81.7557C82.3094 81.1732 82.1721 80.7265 81.8975 80.4159C81.6359 80.0922 81.2305 79.8268 80.6813 79.6197C80.1451 79.4126 79.465 79.212 78.6412 79.0178C77.8304 78.8106 77.1438 78.61 76.5815 78.4158C76.0191 78.2087 75.5876 77.9368 75.2868 77.6003C74.9991 77.2507 74.8552 76.7524 74.8552 76.1051C74.8552 75.4449 74.986 74.8494 75.2476 74.3186C75.5091 73.7749 75.8818 73.3154 76.3657 72.94C76.8495 72.5516 77.4184 72.2539 78.0723 72.0468C78.7392 71.8396 79.4716 71.7361 80.2693 71.7361C80.8578 71.7361 81.3874 71.7943 81.8582 71.9108C82.329 72.0273 82.7475 72.2086 83.1137 72.4545C83.4929 72.7005 83.8199 73.0047 84.0945 73.3672L83.6041 73.872C83.421 73.6131 83.2117 73.3866 82.9764 73.1924C82.754 72.9982 82.499 72.8429 82.2113 72.7264C81.9367 72.5969 81.6359 72.5063 81.309 72.4545C80.982 72.3898 80.6224 72.3574 80.2301 72.3574C79.21 72.3574 78.3535 72.5193 77.6603 72.8429C76.9803 73.1665 76.4638 73.6002 76.1107 74.1439C75.7576 74.6876 75.581 75.2895 75.581 75.9497C75.581 76.4676 75.7053 76.8689 75.9537 77.1537C76.2022 77.4385 76.5749 77.6715 77.0719 77.8527C77.5819 78.0339 78.2358 78.2216 79.0335 78.4158C79.9228 78.6359 80.6616 78.8624 81.2501 79.0954C81.8517 79.3285 82.3029 79.6391 82.6036 80.0275C82.9044 80.4029 83.0548 80.9272 83.0548 81.6003C83.0548 82.2994 82.911 82.9078 82.6233 83.4256C82.3486 83.9434 81.9628 84.3771 81.4659 84.7266C80.982 85.0632 80.4066 85.3156 79.7397 85.4839C79.0858 85.6393 78.3731 85.7169 77.6015 85.7169Z" fill="#090B08"/>
<path d="M86.6849 75.5226H87.293L86.8418 77.6197C87.3911 76.9595 88.045 76.4223 88.8035 76.008C89.575 75.5808 90.327 75.3672 91.0593 75.3672C91.8309 75.3672 92.4848 75.5743 93.0209 75.9886C93.5702 76.3899 93.9887 76.9142 94.2764 77.5614C94.5641 78.2087 94.7079 78.9077 94.7079 79.6586C94.7079 80.4223 94.5576 81.1732 94.2568 81.911C93.956 82.6489 93.544 83.3091 93.0209 83.8917C92.4978 84.4742 91.8897 84.9402 91.1966 85.2897C90.5035 85.6393 89.7712 85.814 88.9996 85.814C88.1496 85.814 87.4434 85.5745 86.8811 85.0956C86.3187 84.6166 85.9133 84.0405 85.6649 83.3674L84.2917 89.7559H83.6248L86.6849 75.5226ZM89.0192 85.1927C89.6993 85.1927 90.3401 85.0373 90.9416 84.7266C91.5432 84.403 92.0728 83.9758 92.5305 83.445C93.0013 82.9143 93.3675 82.3253 93.629 81.678C93.8906 81.0308 94.0214 80.3835 94.0214 79.7362C94.0214 79.0631 93.8906 78.4417 93.629 77.8721C93.3675 77.3025 92.9948 76.8494 92.5109 76.5129C92.0401 76.1633 91.4778 75.9886 90.8239 75.9886C90.4708 75.9886 90.072 76.0663 89.6273 76.2216C89.1958 76.3769 88.7708 76.597 88.3523 76.8818C87.9338 77.1537 87.5676 77.4643 87.2538 77.8139C86.9399 78.1634 86.7241 78.5259 86.6064 78.9013L85.861 82.3771C85.9656 82.9078 86.1618 83.3868 86.4495 83.814C86.7503 84.2282 87.1165 84.5648 87.548 84.8237C87.9926 85.0697 88.4831 85.1927 89.0192 85.1927Z" fill="#090B08"/>
<path d="M100.142 85.814C99.3445 85.814 98.658 85.6198 98.0826 85.2315C97.5071 84.8431 97.0625 84.3253 96.7486 83.6781C96.4348 83.0308 96.2713 82.3188 96.2582 81.5421C96.2321 80.7654 96.3563 80.0146 96.6309 79.2896C96.9056 78.5517 97.2979 77.8915 97.8079 77.309C98.3179 76.7135 98.9195 76.241 99.6126 75.8915C100.319 75.542 101.084 75.3672 101.908 75.3672C102.509 75.3672 103.059 75.4708 103.555 75.6779C104.052 75.8721 104.451 76.1763 104.752 76.5905C105.053 76.9918 105.203 77.5032 105.203 78.1245C105.242 79.1472 104.831 79.8657 103.967 80.2799C103.117 80.6812 101.816 80.8819 100.064 80.8819C99.5668 80.8819 99.0437 80.8754 98.4945 80.8625C97.9452 80.8366 97.3306 80.7977 96.6506 80.746L96.8075 80.2023C97.5137 80.2411 98.1218 80.2735 98.6318 80.2994C99.1549 80.3123 99.6519 80.3188 100.123 80.3188C101.247 80.3188 102.137 80.2411 102.79 80.0858C103.444 79.9175 103.909 79.6715 104.183 79.3479C104.458 79.0242 104.582 78.6229 104.556 78.144C104.556 77.6132 104.419 77.1925 104.144 76.8818C103.869 76.5582 103.523 76.3252 103.104 76.1828C102.699 76.0274 102.274 75.9497 101.829 75.9497C101.123 75.9497 100.463 76.1116 99.848 76.4352C99.2464 76.7588 98.7233 77.186 98.2787 77.7168C97.8472 78.2346 97.5137 78.8171 97.2783 79.4644C97.0429 80.0987 96.9317 80.733 96.9448 81.3673C96.9579 82.0923 97.0952 82.7525 97.3567 83.348C97.6183 83.9305 97.9975 84.3965 98.4945 84.746C98.9914 85.0826 99.593 85.2509 100.299 85.2509C101.123 85.2509 101.849 85.0567 102.477 84.6684C103.104 84.2671 103.595 83.7363 103.948 83.0761L104.556 83.2509C104.281 83.7687 103.928 84.2218 103.497 84.6101C103.065 84.9855 102.568 85.2833 102.006 85.5033C101.443 85.7105 100.822 85.814 100.142 85.814Z" fill="#090B08"/>
<path d="M110.349 85.814C109.59 85.814 108.923 85.6263 108.348 85.2509C107.785 84.8625 107.347 84.3447 107.033 83.6975C106.733 83.0502 106.582 82.3318 106.582 81.5421C106.582 80.7007 106.746 79.911 107.073 79.1731C107.4 78.4352 107.838 77.7815 108.387 77.2119C108.949 76.6423 109.583 76.1957 110.29 75.8721C111.009 75.5355 111.761 75.3672 112.546 75.3672C113.396 75.3672 114.108 75.5743 114.684 75.9886C115.259 76.3899 115.632 76.9465 115.802 77.6585L115.096 77.8915C114.926 77.2961 114.612 76.83 114.154 76.4934C113.696 76.1569 113.154 75.9886 112.526 75.9886C111.859 75.9886 111.212 76.131 110.584 76.4158C109.956 76.7006 109.394 77.0954 108.897 77.6003C108.4 78.1051 108.001 78.6877 107.7 79.3479C107.413 80.0081 107.269 80.7007 107.269 81.4256C107.269 82.1246 107.4 82.7589 107.661 83.3285C107.936 83.8981 108.308 84.3512 108.779 84.6878C109.25 85.0244 109.793 85.1927 110.407 85.1927C110.891 85.1927 111.375 85.102 111.859 84.9208C112.356 84.7266 112.807 84.4807 113.213 84.1829C113.618 83.8722 113.899 83.5421 114.056 83.1926L114.684 83.3868C114.435 83.8528 114.076 84.2735 113.605 84.649C113.147 85.0114 112.631 85.2962 112.055 85.5033C111.493 85.7105 110.924 85.814 110.349 85.814Z" fill="#090B08"/>
<path d="M118.618 75.5226H119.285L117.127 85.6198H116.461L118.618 75.5226ZM119.501 71.4448H120.168L119.815 73.0759H119.148L119.501 71.4448Z" fill="#090B08"/>
<path d="M124.119 85.814C123.373 85.814 122.726 85.6134 122.177 85.2121C121.641 84.8108 121.222 84.2865 120.921 83.6392C120.634 82.979 120.49 82.2864 120.49 81.5615C120.49 80.7719 120.647 80.0081 120.961 79.2702C121.274 78.5323 121.699 77.8721 122.236 77.2896C122.772 76.6941 123.38 76.2281 124.06 75.8915C124.74 75.542 125.446 75.3672 126.179 75.3672C127.068 75.3672 127.787 75.6132 128.336 76.1051C128.899 76.5841 129.304 77.1537 129.553 77.8139L130.043 75.5226H130.73L128.787 84.513C128.774 84.5389 128.761 84.5778 128.748 84.6295C128.748 84.6684 128.748 84.7072 128.748 84.746C128.748 84.9143 128.84 84.9985 129.023 84.9985L128.886 85.6198C128.846 85.6198 128.801 85.6198 128.748 85.6198C128.696 85.6328 128.65 85.6328 128.611 85.6198C128.428 85.594 128.291 85.5292 128.199 85.4257C128.121 85.3092 128.081 85.1732 128.081 85.0179C128.081 84.9661 128.088 84.9079 128.101 84.8431C128.114 84.7655 128.14 84.636 128.179 84.4548C128.219 84.2606 128.277 83.9629 128.356 83.5616C127.82 84.2347 127.166 84.7784 126.394 85.1927C125.636 85.6069 124.877 85.814 124.119 85.814ZM124.315 85.1927C124.707 85.1927 125.126 85.115 125.57 84.9596C126.015 84.8043 126.44 84.5972 126.845 84.3383C127.264 84.0664 127.63 83.7557 127.944 83.4062C128.258 83.0437 128.474 82.6683 128.591 82.28L129.337 78.8042C129.271 78.2993 129.095 77.8398 128.807 77.4255C128.532 76.9983 128.166 76.6553 127.709 76.3964C127.251 76.1245 126.741 75.9886 126.179 75.9886C125.525 75.9886 124.897 76.1504 124.295 76.474C123.694 76.7977 123.158 77.2313 122.687 77.775C122.229 78.3058 121.863 78.8948 121.588 79.5421C121.314 80.1893 121.176 80.8431 121.176 81.5033C121.176 82.1635 121.314 82.7719 121.588 83.3285C121.863 83.8852 122.229 84.3383 122.687 84.6878C123.158 85.0244 123.7 85.1927 124.315 85.1927Z" fill="#090B08"/>
<path d="M133.338 85.7169C132.945 85.7169 132.632 85.6069 132.396 85.3868C132.174 85.1668 132.063 84.8626 132.063 84.4742C132.063 84.3965 132.063 84.3253 132.063 84.2606C132.076 84.1829 132.089 84.1053 132.102 84.0276L134.809 71.4448H135.476L132.788 83.8917C132.775 83.9434 132.762 83.9952 132.749 84.047C132.749 84.0988 132.749 84.157 132.749 84.2218C132.749 84.8172 133.083 85.115 133.75 85.115C133.893 85.115 134.064 85.0956 134.26 85.0567C134.456 85.0179 134.639 84.9726 134.809 84.9208L134.848 85.4645C134.652 85.5292 134.404 85.5875 134.103 85.6393C133.802 85.691 133.547 85.7169 133.338 85.7169Z" fill="#090B08"/>
<path d="M138.484 75.5226H139.151L136.993 85.6198H136.326L138.484 75.5226ZM139.366 71.4448H140.033L139.68 73.0759H139.013L139.366 71.4448Z" fill="#090B08"/>
<path d="M143.003 85.814C142.245 85.814 141.565 85.6846 140.963 85.4257C140.375 85.1538 139.891 84.7525 139.512 84.2218L139.963 83.7752C140.381 84.2671 140.839 84.636 141.336 84.882C141.846 85.115 142.428 85.2315 143.082 85.2315C143.762 85.2315 144.37 85.1279 144.906 84.9208C145.442 84.7007 145.861 84.3965 146.162 84.0082C146.475 83.6069 146.632 83.1473 146.632 82.6295C146.632 82.0729 146.39 81.678 145.907 81.445C145.423 81.199 144.736 80.9596 143.847 80.7265C143.271 80.5712 142.781 80.4223 142.376 80.2799C141.97 80.1375 141.663 79.9498 141.454 79.7168C141.257 79.4709 141.159 79.1408 141.159 78.7265C141.159 77.9886 141.349 77.3737 141.728 76.8818C142.107 76.3769 142.611 76.0015 143.239 75.7556C143.879 75.4967 144.573 75.3672 145.318 75.3672C146.103 75.3672 146.75 75.5031 147.26 75.775C147.77 76.0468 148.11 76.3899 148.28 76.8041L147.79 77.1342C147.607 76.7459 147.273 76.4546 146.789 76.2604C146.318 76.0533 145.782 75.9497 145.181 75.9497C144.645 75.9497 144.115 76.0404 143.592 76.2216C143.082 76.4028 142.657 76.6876 142.317 77.076C141.99 77.4514 141.826 77.9433 141.826 78.5517C141.826 79.0307 142.016 79.3673 142.395 79.5615C142.774 79.7557 143.343 79.9498 144.102 80.144C144.769 80.3252 145.338 80.5065 145.808 80.6877C146.292 80.856 146.665 81.0825 146.927 81.3673C147.188 81.6392 147.319 82.0081 147.319 82.4742C147.319 83.1732 147.129 83.7751 146.75 84.28C146.384 84.7849 145.874 85.1668 145.22 85.4257C144.579 85.6846 143.84 85.814 143.003 85.814Z" fill="#090B08"/>
<path d="M149.655 84.4354C149.655 84.3706 149.655 84.3059 149.655 84.2412C149.668 84.1765 149.681 84.1117 149.694 84.047L151.401 76.1051H150.027L150.145 75.5226H151.538L152.283 72.0468H152.95L152.205 75.5226H154.5L154.363 76.1051H152.068L150.537 83.1538C150.472 83.4515 150.426 83.6716 150.4 83.814C150.374 83.9564 150.361 84.0664 150.361 84.1441C150.361 84.4548 150.466 84.6943 150.675 84.8625C150.884 85.0179 151.126 85.0956 151.401 85.0956C151.675 85.0956 151.93 85.0567 152.166 84.9791C152.401 84.9014 152.597 84.8302 152.754 84.7655C152.924 84.6878 153.022 84.636 153.048 84.6101L153.166 85.1538C153.14 85.1668 153.029 85.225 152.833 85.3286C152.636 85.4192 152.388 85.5098 152.087 85.6004C151.799 85.6781 151.486 85.7169 151.146 85.7169C150.714 85.7169 150.354 85.6069 150.067 85.3868C149.792 85.1538 149.655 84.8367 149.655 84.4354Z" fill="#090B08"/>
</svg>
