<svg width="28" height="28" viewBox="0 0 28 28" fill="none" xmlns="http://www.w3.org/2000/svg">
<g clip-path="url(#clip0_118_631)">
<path d="M9.58379 6.09096C8.22344 5.96238 7.36192 6.03519 6.68864 6.54343C5.69572 7.29254 5.49851 8.69575 5.10423 11.5012L4.40712 16.4614C4.01284 19.2669 3.81563 20.6701 4.5636 21.6638C5.31059 22.6575 6.71182 22.8544 9.51229 23.248L15.4539 24.083C18.2544 24.4766 19.6556 24.6735 20.6475 23.9243C21.6395 23.175 21.8377 21.772 22.2319 18.9665L22.9292 14.0053C23.3235 11.1999 23.5207 9.79666 22.7727 8.80289C22.2656 8.12876 21.4567 7.82017 20.1144 7.56993" stroke="black" stroke-width="1.5" stroke-linecap="round" stroke-linejoin="round"/>
<path d="M11.0593 19.4261L15.0203 19.9828M13.658 11.7127L15.0658 8.88107M9.70813 7.66357C9.49445 5.73506 9.38761 4.77081 9.86984 4.1418C9.99891 3.97434 10.1537 3.8284 10.3285 3.70942C10.9866 3.25863 11.968 3.39655 13.9297 3.67225L16.6034 4.04802C18.5651 4.32372 19.5465 4.46164 20.0549 5.07638C20.1905 5.23984 20.2989 5.42373 20.3764 5.61942C20.6666 6.35698 20.2981 7.25443 19.5612 9.04933C18.9724 10.4793 18.679 11.1944 18.1034 11.6114C17.9459 11.7259 17.7774 11.8211 17.5978 11.8968C16.9388 12.1738 16.1565 12.0638 14.5929 11.8441L13.7135 11.7205C12.1489 11.5006 11.3666 11.3906 10.8105 10.9429C10.66 10.8209 10.5237 10.6825 10.4039 10.5303C9.96468 9.96972 9.87879 9.20128 9.70813 7.66357Z" stroke="black" stroke-width="1.5" stroke-linecap="round" stroke-linejoin="round"/>
</g>
<defs>
<clipPath id="clip0_118_631">
<rect width="24" height="24" fill="white" transform="translate(3.66168 0.209717) rotate(8)"/>
</clipPath>
</defs>
</svg>
