<svg width="24" height="24" viewBox="0 0 24 24" fill="none" xmlns="http://www.w3.org/2000/svg">
<path d="M6.683 5.00002C5.318 5.06202 4.475 5.25402 3.879 5.85102C3 6.73102 3 8.14802 3 10.981V15.99C3 18.823 3 20.24 3.879 21.12C4.757 22 6.172 22 9 22H15C17.828 22 19.243 22 20.121 21.12C20.999 20.24 21 18.823 21 15.99V10.98C21 8.14702 21 6.73002 20.121 5.85002C19.525 5.25302 18.681 5.06002 17.317 4.99902" stroke="black" stroke-width="1.5" stroke-linecap="round" stroke-linejoin="round"/>
<path d="M9.99996 18H14M11.5 10L12.5 7M7.02496 6.54C6.54496 4.66 6.30496 3.72 6.69496 3.03C6.79946 2.84621 6.93244 2.68014 7.08896 2.538C7.67796 2 8.66896 2 10.65 2H13.35C15.331 2 16.322 2 16.911 2.538C17.068 2.681 17.201 2.848 17.305 3.031C17.695 3.721 17.455 4.661 16.975 6.541C16.591 8.039 16.4 8.788 15.888 9.281C15.748 9.41633 15.5943 9.534 15.427 9.634C14.813 10 14.023 10 12.444 10H11.556C9.97596 10 9.18596 10 8.57296 9.634C8.40699 9.53417 8.2527 9.4161 8.11296 9.282C7.59996 8.788 7.40796 8.039 7.02496 6.54Z" stroke="black" stroke-width="1.5" stroke-linecap="round" stroke-linejoin="round"/>
</svg>
