<svg width="24" height="24" viewBox="0 0 24 24" fill="none" xmlns="http://www.w3.org/2000/svg">
<path d="M2 12C2 8.229 2 6.343 3.172 5.172C4.343 4 6.229 4 10 4H14C17.771 4 19.657 4 20.828 5.172C22 6.343 22 8.229 22 12V14C22 17.771 22 19.657 20.828 20.828C19.657 22 17.771 22 14 22H10C6.229 22 4.343 22 3.172 20.828C2 19.657 2 17.771 2 14V12Z" stroke="black" stroke-width="1.5"/>
<path d="M7 4V2.5M17 4V2.5M2.5 9H21.5" stroke="black" stroke-width="1.5" stroke-linecap="round"/>
<path d="M17.536 17C17.536 17.2652 17.4307 17.5196 17.2431 17.7071C17.0556 17.8946 16.8012 18 16.536 18C16.2708 18 16.0164 17.8946 15.8289 17.7071C15.6414 17.5196 15.536 17.2652 15.536 17C15.536 16.7348 15.6414 16.4804 15.8289 16.2929C16.0164 16.1054 16.2708 16 16.536 16C16.8012 16 17.0556 16.1054 17.2431 16.2929C17.4307 16.4804 17.536 16.7348 17.536 17ZM17.536 13C17.536 13.2652 17.4307 13.5196 17.2431 13.7071C17.0556 13.8946 16.8012 14 16.536 14C16.2708 14 16.0164 13.8946 15.8289 13.7071C15.6414 13.5196 15.536 13.2652 15.536 13C15.536 12.7348 15.6414 12.4804 15.8289 12.2929C16.0164 12.1054 16.2708 12 16.536 12C16.8012 12 17.0556 12.1054 17.2431 12.2929C17.4307 12.4804 17.536 12.7348 17.536 13ZM12.536 17C12.536 17.2652 12.4307 17.5196 12.2431 17.7071C12.0556 17.8946 11.8012 18 11.536 18C11.2708 18 11.0164 17.8946 10.8289 17.7071C10.6414 17.5196 10.536 17.2652 10.536 17C10.536 16.7348 10.6414 16.4804 10.8289 16.2929C11.0164 16.1054 11.2708 16 11.536 16C11.8012 16 12.0556 16.1054 12.2431 16.2929C12.4307 16.4804 12.536 16.7348 12.536 17ZM12.536 13C12.536 13.2652 12.4307 13.5196 12.2431 13.7071C12.0556 13.8946 11.8012 14 11.536 14C11.2708 14 11.0164 13.8946 10.8289 13.7071C10.6414 13.5196 10.536 13.2652 10.536 13C10.536 12.7348 10.6414 12.4804 10.8289 12.2929C11.0164 12.1054 11.2708 12 11.536 12C11.8012 12 12.0556 12.1054 12.2431 12.2929C12.4307 12.4804 12.536 12.7348 12.536 13ZM7.53601 17C7.53601 17.2652 7.43065 17.5196 7.24312 17.7071C7.05558 17.8946 6.80123 18 6.53601 18C6.27079 18 6.01644 17.8946 5.8289 17.7071C5.64137 17.5196 5.53601 17.2652 5.53601 17C5.53601 16.7348 5.64137 16.4804 5.8289 16.2929C6.01644 16.1054 6.27079 16 6.53601 16C6.80123 16 7.05558 16.1054 7.24312 16.2929C7.43065 16.4804 7.53601 16.7348 7.53601 17ZM7.53601 13C7.53601 13.2652 7.43065 13.5196 7.24312 13.7071C7.05558 13.8946 6.80123 14 6.53601 14C6.27079 14 6.01644 13.8946 5.8289 13.7071C5.64137 13.5196 5.53601 13.2652 5.53601 13C5.53601 12.7348 5.64137 12.4804 5.8289 12.2929C6.01644 12.1054 6.27079 12 6.53601 12C6.80123 12 7.05558 12.1054 7.24312 12.2929C7.43065 12.4804 7.53601 12.7348 7.53601 13Z" fill="black"/>
</svg>
