<svg width="28" height="28" viewBox="0 0 28 28" fill="none" xmlns="http://www.w3.org/2000/svg">
<g clip-path="url(#clip0_118_637)">
<path d="M4.42629 12.9788C4.95111 9.24448 5.21359 7.37684 6.53716 6.38035C7.85987 5.38272 9.72752 5.6452 13.4618 6.17003L17.4229 6.72672C21.1572 7.25154 23.0248 7.51402 24.0213 8.83759C25.019 10.1603 24.7565 12.0279 24.2316 15.7622L23.9533 17.7428C23.4285 21.4771 23.166 23.3447 21.8424 24.3412C20.5197 25.3388 18.6521 25.0764 14.9178 24.5515L10.9567 23.9949C7.2224 23.47 5.35476 23.2075 4.35826 21.884C3.36064 20.5613 3.62312 18.6936 4.14794 14.9593L4.42629 12.9788Z" stroke="black" stroke-width="1.5"/>
<path d="M10.491 5.75255L10.6997 4.26715M20.3937 7.14428L20.6024 5.65888M5.33891 10.0776L24.154 12.7219" stroke="black" stroke-width="1.5" stroke-linecap="round"/>
<path d="M19.5747 20.1571C19.5378 20.4197 19.398 20.6569 19.1862 20.8165C18.9744 20.9761 18.7079 21.0451 18.4452 21.0082C18.1826 20.9712 17.9454 20.8315 17.7858 20.6197C17.6262 20.4079 17.5572 20.1414 17.5941 19.8787C17.6311 19.6161 17.7708 19.3789 17.9826 19.2193C18.1944 19.0596 18.4609 18.9907 18.7236 19.0276C18.9862 19.0645 19.2234 19.2043 19.383 19.4161C19.5427 19.6279 19.6116 19.8944 19.5747 20.1571ZM20.1314 16.196C20.0945 16.4586 19.9547 16.6958 19.7429 16.8555C19.5311 17.0151 19.2646 17.084 19.0019 17.0471C18.7393 17.0102 18.5021 16.8704 18.3425 16.6586C18.1829 16.4468 18.1139 16.1803 18.1508 15.9176C18.1877 15.655 18.3275 15.4178 18.5393 15.2582C18.7511 15.0986 19.0176 15.0296 19.2803 15.0665C19.5429 15.1035 19.7801 15.2432 19.9397 15.455C20.0994 15.6668 20.1683 15.9334 20.1314 16.196ZM14.6233 19.4612C14.5864 19.7238 14.4467 19.961 14.2349 20.1207C14.0231 20.2803 13.7565 20.3492 13.4939 20.3123C13.2313 20.2754 12.994 20.1357 12.8344 19.9238C12.6748 19.712 12.6059 19.4455 12.6428 19.1829C12.6797 18.9202 12.8194 18.683 13.0313 18.5234C13.2431 18.3638 13.5096 18.2948 13.7722 18.3318C14.0349 18.3687 14.2721 18.5084 14.4317 18.7202C14.5913 18.932 14.6603 19.1986 14.6233 19.4612ZM15.18 15.5001C15.1431 15.7628 15.0034 16 14.7916 16.1596C14.5798 16.3192 14.3132 16.3881 14.0506 16.3512C13.788 16.3143 13.5507 16.1746 13.3911 15.9628C13.2315 15.751 13.1626 15.4844 13.1995 15.2218C13.2364 14.9591 13.3761 14.7219 13.5879 14.5623C13.7998 14.4027 14.0663 14.3338 14.3289 14.3707C14.5916 14.4076 14.8288 14.5473 14.9884 14.7591C15.148 14.9709 15.2169 15.2375 15.18 15.5001ZM9.672 18.7653C9.63509 19.028 9.49536 19.2652 9.28355 19.4248C9.07174 19.5844 8.80519 19.6533 8.54256 19.6164C8.27992 19.5795 8.04271 19.4398 7.8831 19.228C7.72348 19.0162 7.65455 18.7496 7.69146 18.487C7.72837 18.2243 7.86811 17.9871 8.07992 17.8275C8.29173 17.6679 8.55827 17.599 8.8209 17.6359C9.08354 17.6728 9.32076 17.8125 9.48037 18.0243C9.63998 18.2362 9.70891 18.5027 9.672 18.7653ZM10.2287 14.8043C10.1918 15.0669 10.0521 15.3041 9.84024 15.4637C9.62843 15.6233 9.36189 15.6923 9.09925 15.6554C8.83662 15.6184 8.5994 15.4787 8.43979 15.2669C8.28018 15.0551 8.21124 14.7885 8.24816 14.5259C8.28507 14.2633 8.4248 14.0261 8.63661 13.8665C8.84842 13.7068 9.11496 13.6379 9.3776 13.6748C9.64023 13.7117 9.87745 13.8515 10.0371 14.0633C10.1967 14.2751 10.2656 14.5416 10.2287 14.8043Z" fill="black"/>
</g>
<defs>
<clipPath id="clip0_118_637">
<rect width="24" height="24" fill="white" transform="translate(4.11578 0.817383) rotate(8)"/>
</clipPath>
</defs>
</svg>
