<svg width="40" height="41" viewBox="0 0 40 41" fill="none" xmlns="http://www.w3.org/2000/svg">
<path d="M13.3334 20.5H13.3484M20.0084 20.5H20.0217M26.6517 20.5H26.6667" stroke="#35AA9A" stroke-width="3" stroke-linecap="round" stroke-linejoin="round"/>
<path d="M3.33337 20.4999C3.33337 12.6433 3.33337 8.71492 5.77337 6.27325C8.21671 3.83325 12.1434 3.83325 20 3.83325C27.8567 3.83325 31.785 3.83325 34.225 6.27325C36.6667 8.71659 36.6667 12.6433 36.6667 20.4999C36.6667 28.3566 36.6667 32.2849 34.225 34.7249C31.7867 37.1666 27.8567 37.1666 20 37.1666C12.1434 37.1666 8.21504 37.1666 5.77337 34.7249C3.33337 32.2866 3.33337 28.3566 3.33337 20.4999Z" stroke="#35AA9A" stroke-width="1.5"/>
</svg>
