<svg width="119" height="61" viewBox="0 0 119 61" fill="none" xmlns="http://www.w3.org/2000/svg">
<path d="M15.681 40.1821C22.6501 32.4338 22.9537 29.7832 15.681 23.9404C8.03417 17.2899 19.6538 10.9272 32 0C22.9629 9.03973 13.0237 16.5397 20.5443 23.245C27.7139 28.8576 32.1761 30.149 22.8005 38.5927C13.4248 47.0364 8.81242 51.243 0 60C4.35142 54.0717 11.2227 45.1389 15.681 40.1821Z" fill="#4CC7B6"/>
<path d="M42.6311 21.1597L39.1786 12.6935H39.9437L43.1215 20.5189L49.6733 12.6935H50.4187L43.298 21.1986L42.1603 26.4802H41.4933L42.6311 21.1597Z" fill="#090B08"/>
<path d="M51.7649 26.6744C50.9279 26.6744 50.2283 26.4867 49.666 26.1113C49.1036 25.7359 48.6786 25.231 48.3909 24.5967C48.1163 23.9494 47.979 23.2439 47.979 22.4801C47.979 21.5999 48.1359 20.7843 48.4497 20.0335C48.7767 19.2827 49.2148 18.6225 49.764 18.0529C50.3133 17.4703 50.941 17.0237 51.6472 16.713C52.3534 16.3894 53.0792 16.2276 53.8246 16.2276C54.6616 16.2276 55.3612 16.4218 55.9235 16.8101C56.4859 17.1855 56.9044 17.6969 57.179 18.3441C57.4536 18.9784 57.5909 19.684 57.5909 20.4607C57.5909 21.328 57.434 22.1371 57.1201 22.8879C56.8063 23.6387 56.3747 24.2989 55.8255 24.8685C55.2893 25.4381 54.6681 25.8847 53.9619 26.2084C53.2688 26.5191 52.5365 26.6744 51.7649 26.6744ZM51.8826 26.053C52.5234 26.053 53.1446 25.9171 53.7461 25.6453C54.3477 25.3734 54.8839 24.985 55.3547 24.4802C55.8385 23.9753 56.2178 23.3928 56.4924 22.7326C56.7801 22.0594 56.924 21.341 56.924 20.5772C56.924 19.8911 56.7997 19.2697 56.5513 18.7131C56.3159 18.1435 55.9628 17.6904 55.492 17.3538C55.0212 17.0172 54.4262 16.849 53.7069 16.849C53.0661 16.849 52.4449 16.9914 51.8434 17.2761C51.2418 17.548 50.6991 17.9428 50.2152 18.4606C49.7444 18.9655 49.3652 19.5545 49.0775 20.2277C48.8028 20.8879 48.6655 21.6063 48.6655 22.383C48.6655 23.0691 48.7832 23.6905 49.0186 24.2472C49.254 24.8038 49.6136 25.2439 50.0975 25.5676C50.5814 25.8912 51.1764 26.053 51.8826 26.053Z" fill="#090B08"/>
<path d="M61.758 26.6744C60.1756 26.6744 59.3844 25.7812 59.3844 23.9947C59.3844 23.7229 59.404 23.4316 59.4433 23.1209C59.4825 22.8102 59.5414 22.4801 59.6198 22.1306L60.8556 16.3829H61.5226L60.3064 22.0529C60.1495 22.7261 60.071 23.3216 60.071 23.8394C60.071 25.3151 60.7249 26.053 62.0326 26.053C62.6211 26.053 63.2096 25.9171 63.7981 25.6453C64.3866 25.3734 64.9358 24.9915 65.4458 24.4996C65.9689 23.9947 66.3874 23.4251 66.7013 22.7908L68.0744 16.3829H68.7414L66.8975 25.0239C66.8713 25.1404 66.8451 25.2569 66.819 25.3734C66.7928 25.477 66.7798 25.5417 66.7798 25.5676C66.7798 25.7618 66.8778 25.8588 67.074 25.8588L66.9171 26.4802C66.8517 26.4802 66.7928 26.4802 66.7405 26.4802C66.6882 26.4802 66.6424 26.4737 66.6032 26.4608C66.4594 26.4349 66.3417 26.3702 66.2501 26.2666C66.1717 26.1631 66.1324 26.0336 66.1324 25.8783C66.1324 25.8394 66.139 25.7812 66.152 25.7035C66.1651 25.6258 66.1978 25.464 66.2501 25.2181C66.3024 24.9592 66.3874 24.5514 66.5051 23.9947C65.9036 24.8232 65.1778 25.477 64.3277 25.9559C63.4777 26.4349 62.6211 26.6744 61.758 26.6744Z" fill="#090B08"/>
<path d="M71.8734 16.3829H72.5207L71.9715 18.9461C72.4946 18.1694 73.0961 17.5674 73.7762 17.1402C74.4562 16.7001 75.1428 16.4541 75.8359 16.4023C75.9143 16.3894 75.9863 16.3829 76.0516 16.3829C76.1301 16.3829 76.1955 16.3894 76.2478 16.4023L76.1105 17.0043C75.2212 17.0431 74.3843 17.3409 73.5996 17.8975C72.815 18.4412 72.1938 19.1856 71.7361 20.1306L70.3826 26.4802H69.7156L71.8734 16.3829Z" fill="#090B08"/>
<path d="M85.8702 26.5773C84.7848 26.5773 83.8628 26.409 83.1043 26.0724C82.3458 25.7359 81.6527 25.2051 81.025 24.4802L81.5154 23.9753C81.7639 24.286 82.032 24.5643 82.3197 24.8103C82.6205 25.0562 82.9539 25.2698 83.3201 25.4511C83.6863 25.6194 84.0851 25.7488 84.5167 25.8394C84.9613 25.93 85.4583 25.9754 86.0075 25.9754C86.923 25.9754 87.7207 25.8459 88.4007 25.587C89.0938 25.3151 89.63 24.9268 90.0093 24.4219C90.3885 23.9171 90.5781 23.3151 90.5781 22.6161C90.5781 22.0335 90.4408 21.5869 90.1662 21.2762C89.9046 20.9526 89.4992 20.6872 88.95 20.4801C88.4138 20.273 87.7338 20.0723 86.9099 19.8781C86.0991 19.671 85.4125 19.4704 84.8502 19.2762C84.2878 19.0691 83.8563 18.7972 83.5555 18.4606C83.2678 18.1111 83.1239 17.6127 83.1239 16.9655C83.1239 16.3053 83.2547 15.7098 83.5163 15.179C83.7778 14.6353 84.1505 14.1758 84.6344 13.8004C85.1183 13.412 85.6871 13.1143 86.341 12.9071C87.008 12.7 87.7403 12.5964 88.538 12.5964C89.1265 12.5964 89.6562 12.6547 90.1269 12.7712C90.5977 12.8877 91.0162 13.0689 91.3824 13.3149C91.7616 13.5609 92.0886 13.8651 92.3632 14.2275L91.8728 14.7324C91.6897 14.4735 91.4805 14.247 91.2451 14.0528C91.0228 13.8586 90.7677 13.7033 90.48 13.5868C90.2054 13.4573 89.9046 13.3667 89.5777 13.3149C89.2508 13.2502 88.8911 13.2178 88.4988 13.2178C87.4788 13.2178 86.6222 13.3796 85.9291 13.7033C85.249 14.0269 84.7325 14.4606 84.3794 15.0043C84.0263 15.548 83.8497 16.1499 83.8497 16.8101C83.8497 17.3279 83.974 17.7292 84.2225 18.014C84.4709 18.2988 84.8436 18.5318 85.3406 18.7131C85.8506 18.8943 86.5045 19.082 87.3022 19.2762C88.1915 19.4963 88.9304 19.7228 89.5188 19.9558C90.1204 20.1888 90.5716 20.4995 90.8724 20.8879C91.1731 21.2633 91.3235 21.7876 91.3235 22.4607C91.3235 23.1598 91.1797 23.7682 90.892 24.286C90.6174 24.8038 90.2316 25.2375 89.7346 25.587C89.2508 25.9236 88.6753 26.176 88.0084 26.3443C87.3545 26.4996 86.6418 26.5773 85.8702 26.5773Z" fill="#090B08"/>
<path d="M94.424 26.5773C94.0317 26.5773 93.7178 26.4673 93.4824 26.2472C93.2601 26.0271 93.1489 25.7229 93.1489 25.3346C93.1489 25.2569 93.1489 25.1857 93.1489 25.121C93.162 25.0433 93.1751 24.9656 93.1882 24.888L95.8952 12.3052H96.5621L93.8747 24.752C93.8616 24.8038 93.8486 24.8556 93.8355 24.9074C93.8355 24.9592 93.8355 25.0174 93.8355 25.0821C93.8355 25.6776 94.169 25.9754 94.8359 25.9754C94.9798 25.9754 95.1498 25.9559 95.3459 25.9171C95.5421 25.8783 95.7252 25.833 95.8952 25.7812L95.9344 26.3249C95.7383 26.3896 95.4898 26.4479 95.189 26.4996C94.8882 26.5514 94.6332 26.5773 94.424 26.5773Z" fill="#090B08"/>
<path d="M99.5699 16.3829H100.237L98.079 26.4802H97.4121L99.5699 16.3829ZM100.453 12.3052H101.12L100.766 13.9363H100.1L100.453 12.3052Z" fill="#090B08"/>
<path d="M103.325 16.3829H103.952L103.423 18.9073C104.011 18.0529 104.685 17.3927 105.443 16.9266C106.202 16.4606 106.96 16.2276 107.719 16.2276C108.242 16.2276 108.68 16.3441 109.033 16.5771C109.399 16.8101 109.667 17.1467 109.837 17.5868C110.007 18.014 110.066 18.5383 110.014 19.1597C110.367 18.5254 110.785 17.9946 111.269 17.5674C111.753 17.1273 112.276 16.7972 112.838 16.5771C113.401 16.3441 113.95 16.2276 114.486 16.2276C114.996 16.2276 115.415 16.3247 115.742 16.5189C116.069 16.713 116.311 16.9978 116.467 17.3732C116.637 17.7487 116.722 18.2082 116.722 18.7519C116.722 19.0367 116.703 19.3474 116.664 19.684C116.624 20.0205 116.559 20.383 116.467 20.7714L115.251 26.4802H114.584L115.781 20.849C115.925 20.137 115.997 19.5221 115.997 19.0043C115.997 18.2794 115.846 17.7422 115.545 17.3927C115.258 17.0302 114.807 16.849 114.192 16.849C113.63 16.849 113.074 16.9914 112.525 17.2761C111.988 17.548 111.491 17.9364 111.034 18.4412C110.576 18.9331 110.19 19.5157 109.876 20.1888L108.542 26.4802H107.876L109.072 20.849C109.151 20.4736 109.209 20.1306 109.249 19.8199C109.288 19.5092 109.308 19.2244 109.308 18.9655C109.308 18.2406 109.157 17.7098 108.856 17.3732C108.569 17.0237 108.117 16.849 107.503 16.849C106.666 16.849 105.855 17.1532 105.07 17.7616C104.286 18.37 103.658 19.1726 103.187 20.1694L101.834 26.4802H101.167L103.325 16.3829Z" fill="#090B08"/>
<path d="M42.1014 42.7169C41.016 42.7169 40.094 42.5486 39.3355 42.2121C38.5771 41.8755 37.8839 41.3447 37.2562 40.6198L37.7466 40.1149C37.9951 40.4256 38.2632 40.704 38.5509 40.9499C38.8517 41.1959 39.1852 41.4095 39.5513 41.5907C39.9175 41.759 40.3164 41.8884 40.7479 41.9791C41.1926 42.0697 41.6895 42.115 42.2388 42.115C43.1542 42.115 43.9519 41.9855 44.6319 41.7266C45.325 41.4548 45.8612 41.0664 46.2405 40.5616C46.6197 40.0567 46.8093 39.4547 46.8093 38.7557C46.8093 38.1732 46.672 37.7265 46.3974 37.4159C46.1358 37.0922 45.7304 36.8268 45.1812 36.6197C44.645 36.4126 43.965 36.212 43.1411 36.0178C42.3303 35.8106 41.6437 35.61 41.0814 35.4158C40.5191 35.2087 40.0875 34.9368 39.7867 34.6003C39.499 34.2507 39.3552 33.7524 39.3552 33.1051C39.3552 32.4449 39.4859 31.8494 39.7475 31.3186C40.009 30.7749 40.3817 30.3154 40.8656 29.94C41.3495 29.5516 41.9184 29.2539 42.5722 29.0468C43.2392 28.8396 43.9715 28.7361 44.7692 28.7361C45.3577 28.7361 45.8874 28.7943 46.3582 28.9108C46.829 29.0273 47.2474 29.2086 47.6136 29.4545C47.9929 29.7005 48.3198 30.0047 48.5944 30.3672L48.104 30.872C47.9209 30.6131 47.7117 30.3866 47.4763 30.1924C47.254 29.9982 46.999 29.8429 46.7113 29.7264C46.4366 29.5969 46.1358 29.5063 45.8089 29.4545C45.482 29.3898 45.1223 29.3574 44.73 29.3574C43.71 29.3574 42.8534 29.5193 42.1603 29.8429C41.4803 30.1665 40.9637 30.6002 40.6106 31.1439C40.2575 31.6876 40.081 32.2895 40.081 32.9497C40.081 33.4676 40.2052 33.8689 40.4537 34.1537C40.7021 34.4385 41.0749 34.6715 41.5718 34.8527C42.0818 35.0339 42.7357 35.2216 43.5334 35.4158C44.4227 35.6359 45.1616 35.8624 45.7501 36.0954C46.3516 36.3285 46.8028 36.6391 47.1036 37.0275C47.4044 37.4029 47.5548 37.9272 47.5548 38.6003C47.5548 39.2994 47.4109 39.9078 47.1232 40.4256C46.8486 40.9434 46.4628 41.3771 45.9658 41.7266C45.482 42.0632 44.9066 42.3156 44.2396 42.4839C43.5857 42.6393 42.873 42.7169 42.1014 42.7169Z" fill="#090B08"/>
<path d="M51.1848 32.5226H51.7929L51.3418 34.6197C51.891 33.9595 52.5449 33.4223 53.3034 33.008C54.075 32.5808 54.8269 32.3672 55.5593 32.3672C56.3308 32.3672 56.9847 32.5743 57.5209 32.9886C58.0701 33.3899 58.4886 33.9142 58.7763 34.5614C59.064 35.2087 59.2079 35.9077 59.2079 36.6586C59.2079 37.4223 59.0575 38.1732 58.7567 38.911C58.4559 39.6489 58.044 40.3091 57.5209 40.8917C56.9978 41.4742 56.3897 41.9402 55.6966 42.2897C55.0035 42.6393 54.2711 42.814 53.4996 42.814C52.6495 42.814 51.9433 42.5745 51.381 42.0956C50.8187 41.6166 50.4133 41.0405 50.1648 40.3674L48.7917 46.7559H48.1247L51.1848 32.5226ZM53.5192 42.1927C54.1992 42.1927 54.84 42.0373 55.4416 41.7266C56.0431 41.403 56.5728 40.9758 57.0305 40.445C57.5013 39.9143 57.8674 39.3253 58.129 38.678C58.3905 38.0308 58.5213 37.3835 58.5213 36.7362C58.5213 36.0631 58.3905 35.4417 58.129 34.8721C57.8674 34.3025 57.4947 33.8494 57.0109 33.5129C56.5401 33.1633 55.9777 32.9886 55.3239 32.9886C54.9708 32.9886 54.5719 33.0663 54.1273 33.2216C53.6957 33.3769 53.2707 33.597 52.8522 33.8818C52.4337 34.1537 52.0676 34.4643 51.7537 34.8139C51.4398 35.1634 51.2241 35.5259 51.1064 35.9013L50.361 39.3771C50.4656 39.9078 50.6617 40.3868 50.9494 40.814C51.2502 41.2282 51.6164 41.5648 52.048 41.8237C52.4926 42.0697 52.983 42.1927 53.5192 42.1927Z" fill="#090B08"/>
<path d="M64.6422 42.814C63.8445 42.814 63.1579 42.6198 62.5825 42.2315C62.0071 41.8431 61.5624 41.3253 61.2486 40.6781C60.9347 40.0308 60.7713 39.3188 60.7582 38.5421C60.732 37.7654 60.8563 37.0146 61.1309 36.2896C61.4055 35.5517 61.7978 34.8915 62.3079 34.309C62.8179 33.7135 63.4194 33.241 64.1126 32.8915C64.8187 32.542 65.5838 32.3672 66.4077 32.3672C67.0092 32.3672 67.5585 32.4708 68.0554 32.6779C68.5524 32.8721 68.9512 33.1763 69.252 33.5905C69.5528 33.9918 69.7032 34.5032 69.7032 35.1245C69.7424 36.1472 69.3305 36.8657 68.4674 37.2799C67.6173 37.6812 66.3161 37.8819 64.5637 37.8819C64.0668 37.8819 63.5437 37.8754 62.9944 37.8625C62.4452 37.8366 61.8305 37.7977 61.1505 37.746L61.3074 37.2023C62.0136 37.2411 62.6217 37.2735 63.1317 37.2994C63.6548 37.3123 64.1518 37.3188 64.6226 37.3188C65.7472 37.3188 66.6365 37.2411 67.2904 37.0858C67.9443 36.9175 68.4085 36.6715 68.6831 36.3479C68.9578 36.0242 69.082 35.6229 69.0559 35.144C69.0559 34.6132 68.9185 34.1925 68.6439 33.8818C68.3693 33.5582 68.0227 33.3252 67.6042 33.1828C67.1988 33.0274 66.7738 32.9497 66.3292 32.9497C65.623 32.9497 64.9626 33.1116 64.348 33.4352C63.7464 33.7588 63.2233 34.186 62.7787 34.7168C62.3471 35.2346 62.0136 35.8171 61.7782 36.4644C61.5428 37.0987 61.4317 37.733 61.4447 38.3673C61.4578 39.0923 61.5951 39.7525 61.8567 40.348C62.1182 40.9305 62.4975 41.3965 62.9944 41.746C63.4914 42.0826 64.0929 42.2509 64.7991 42.2509C65.623 42.2509 66.3488 42.0567 66.9765 41.6684C67.6042 41.2671 68.0947 40.7363 68.4477 40.0761L69.0559 40.2509C68.7812 40.7687 68.4281 41.2218 67.9966 41.6101C67.565 41.9855 67.0681 42.2833 66.5057 42.5033C65.9434 42.7105 65.3222 42.814 64.6422 42.814Z" fill="#090B08"/>
<path d="M74.8485 42.814C74.09 42.814 73.423 42.6263 72.8476 42.2509C72.2853 41.8625 71.8472 41.3447 71.5333 40.6975C71.2325 40.0502 71.0821 39.3318 71.0821 38.5421C71.0821 37.7007 71.2456 36.911 71.5726 36.1731C71.8995 35.4352 72.3376 34.7815 72.8868 34.2119C73.4492 33.6423 74.0834 33.1957 74.7896 32.8721C75.5089 32.5355 76.2608 32.3672 77.0455 32.3672C77.8955 32.3672 78.6083 32.5743 79.1837 32.9886C79.7591 33.3899 80.1318 33.9465 80.3018 34.6585L79.5956 34.8915C79.4256 34.2961 79.1117 33.83 78.654 33.4934C78.1963 33.1569 77.6536 32.9886 77.0259 32.9886C76.3589 32.9886 75.7116 33.131 75.0839 33.4158C74.4561 33.7006 73.8938 34.0954 73.3969 34.6003C72.8999 35.1051 72.5011 35.6877 72.2003 36.3479C71.9126 37.0081 71.7687 37.7007 71.7687 38.4256C71.7687 39.1246 71.8995 39.7589 72.161 40.3285C72.4357 40.8981 72.8084 41.3512 73.2792 41.6878C73.75 42.0244 74.2927 42.1927 74.9073 42.1927C75.3912 42.1927 75.8751 42.102 76.3589 41.9208C76.8559 41.7266 77.307 41.4807 77.7124 41.1829C78.1178 40.8722 78.399 40.5421 78.5559 40.1926L79.1837 40.3868C78.9352 40.8528 78.5756 41.2735 78.1048 41.649C77.6471 42.0114 77.1305 42.2962 76.5551 42.5033C75.9928 42.7105 75.4239 42.814 74.8485 42.814Z" fill="#090B08"/>
<path d="M83.1183 32.5226H83.7852L81.6274 42.6198H80.9605L83.1183 32.5226ZM84.001 28.4448H84.6679L84.3148 30.0759H83.6479L84.001 28.4448Z" fill="#090B08"/>
<path d="M88.6188 42.814C87.8734 42.814 87.226 42.6134 86.6768 42.2121C86.1406 41.8108 85.7221 41.2865 85.4213 40.6392C85.1336 39.979 84.9898 39.2864 84.9898 38.5615C84.9898 37.7719 85.1467 37.0081 85.4606 36.2702C85.7744 35.5323 86.1994 34.8721 86.7356 34.2896C87.2718 33.6941 87.8799 33.2281 88.5599 32.8915C89.24 32.542 89.9461 32.3672 90.6785 32.3672C91.5677 32.3672 92.287 32.6132 92.8363 33.1051C93.3986 33.5841 93.804 34.1537 94.0525 34.8139L94.5429 32.5226H95.2294L93.2874 41.513C93.2744 41.5389 93.2613 41.5778 93.2482 41.6295C93.2482 41.6684 93.2482 41.7072 93.2482 41.746C93.2482 41.9143 93.3397 41.9985 93.5228 41.9985L93.3855 42.6198C93.3463 42.6198 93.3005 42.6198 93.2482 42.6198C93.1959 42.6328 93.1501 42.6328 93.1109 42.6198C92.9278 42.594 92.7905 42.5292 92.6989 42.4257C92.6205 42.3092 92.5813 42.1732 92.5813 42.0179C92.5813 41.9661 92.5878 41.9079 92.6009 41.8431C92.6139 41.7655 92.6401 41.636 92.6793 41.4548C92.7186 41.2606 92.7774 40.9629 92.8559 40.5616C92.3197 41.2347 91.6658 41.7784 90.8943 42.1927C90.1358 42.6069 89.3773 42.814 88.6188 42.814ZM88.8149 42.1927C89.2073 42.1927 89.6257 42.115 90.0704 41.9596C90.515 41.8043 90.94 41.5972 91.3454 41.3383C91.7639 41.0664 92.1301 40.7557 92.4439 40.4062C92.7578 40.0437 92.9736 39.6683 93.0913 39.28L93.8367 35.8042C93.7713 35.2993 93.5948 34.8398 93.3071 34.4255C93.0324 33.9983 92.6663 33.6553 92.2085 33.3964C91.7508 33.1245 91.2408 32.9886 90.6785 32.9886C90.0246 32.9886 89.3969 33.1504 88.7953 33.474C88.1937 33.7977 87.6576 34.2313 87.1868 34.775C86.7291 35.3058 86.3629 35.8948 86.0883 36.5421C85.8136 37.1893 85.6763 37.8431 85.6763 38.5033C85.6763 39.1635 85.8136 39.7719 86.0883 40.3285C86.3629 40.8852 86.7291 41.3383 87.1868 41.6878C87.6576 42.0244 88.2003 42.1927 88.8149 42.1927Z" fill="#090B08"/>
<path d="M97.8376 42.7169C97.4453 42.7169 97.1315 42.6069 96.8961 42.3868C96.6737 42.1668 96.5626 41.8626 96.5626 41.4742C96.5626 41.3965 96.5626 41.3253 96.5626 41.2606C96.5757 41.1829 96.5887 41.1053 96.6018 41.0276L99.3089 28.4448H99.9758L97.2884 40.8917C97.2753 40.9434 97.2622 40.9952 97.2492 41.047C97.2492 41.0988 97.2492 41.157 97.2492 41.2218C97.2492 41.8172 97.5826 42.115 98.2496 42.115C98.3934 42.115 98.5634 42.0956 98.7596 42.0567C98.9558 42.0179 99.1389 41.9726 99.3089 41.9208L99.3481 42.4645C99.1519 42.5292 98.9035 42.5875 98.6027 42.6393C98.3019 42.691 98.0469 42.7169 97.8376 42.7169Z" fill="#090B08"/>
<path d="M102.984 32.5226H103.65L101.493 42.6198H100.826L102.984 32.5226ZM103.866 28.4448H104.533L104.18 30.0759H103.513L103.866 28.4448Z" fill="#090B08"/>
<path d="M107.503 42.814C106.745 42.814 106.065 42.6846 105.463 42.4257C104.875 42.1538 104.391 41.7525 104.012 41.2218L104.463 40.7752C104.881 41.2671 105.339 41.636 105.836 41.882C106.346 42.115 106.928 42.2315 107.582 42.2315C108.262 42.2315 108.87 42.1279 109.406 41.9208C109.942 41.7007 110.361 41.3965 110.661 41.0082C110.975 40.6069 111.132 40.1473 111.132 39.6295C111.132 39.0729 110.89 38.678 110.406 38.445C109.923 38.199 109.236 37.9596 108.347 37.7265C107.771 37.5712 107.281 37.4223 106.876 37.2799C106.47 37.1375 106.163 36.9498 105.954 36.7168C105.757 36.4709 105.659 36.1408 105.659 35.7265C105.659 34.9886 105.849 34.3737 106.228 33.8818C106.607 33.3769 107.111 33.0015 107.739 32.7556C108.379 32.4967 109.073 32.3672 109.818 32.3672C110.603 32.3672 111.25 32.5031 111.76 32.775C112.27 33.0468 112.61 33.3899 112.78 33.8041L112.29 34.1342C112.107 33.7459 111.773 33.4546 111.289 33.2604C110.818 33.0533 110.282 32.9497 109.681 32.9497C109.144 32.9497 108.615 33.0404 108.092 33.2216C107.582 33.4028 107.157 33.6876 106.817 34.076C106.49 34.4514 106.326 34.9433 106.326 35.5517C106.326 36.0307 106.516 36.3673 106.895 36.5615C107.274 36.7557 107.843 36.9498 108.602 37.144C109.269 37.3252 109.838 37.5065 110.308 37.6877C110.792 37.856 111.165 38.0825 111.426 38.3673C111.688 38.6392 111.819 39.0081 111.819 39.4742C111.819 40.1732 111.629 40.7751 111.25 41.28C110.884 41.7849 110.374 42.1668 109.72 42.4257C109.079 42.6846 108.34 42.814 107.503 42.814Z" fill="#090B08"/>
<path d="M114.155 41.4354C114.155 41.3706 114.155 41.3059 114.155 41.2412C114.168 41.1765 114.181 41.1117 114.194 41.047L115.901 33.1051H114.527L114.645 32.5226H116.038L116.783 29.0468H117.45L116.705 32.5226H119L118.863 33.1051H116.567L115.037 40.1538C114.972 40.4515 114.926 40.6716 114.9 40.814C114.874 40.9564 114.861 41.0664 114.861 41.1441C114.861 41.4548 114.965 41.6943 115.175 41.8625C115.384 42.0179 115.626 42.0956 115.901 42.0956C116.175 42.0956 116.43 42.0567 116.666 41.9791C116.901 41.9014 117.097 41.8302 117.254 41.7655C117.424 41.6878 117.522 41.636 117.548 41.6101L117.666 42.1538C117.64 42.1668 117.529 42.225 117.333 42.3286C117.136 42.4192 116.888 42.5098 116.587 42.6004C116.299 42.6781 115.986 42.7169 115.646 42.7169C115.214 42.7169 114.854 42.6069 114.567 42.3868C114.292 42.1538 114.155 41.8367 114.155 41.4354Z" fill="#090B08"/>
</svg>
